<?xml version="1.0" encoding="utf-8" standalone="no"?>
<!DOCTYPE svg PUBLIC "-//W3C//DTD SVG 1.1//EN"
  "http://www.w3.org/Graphics/SVG/1.1/DTD/svg11.dtd">
<svg xmlns:xlink="http://www.w3.org/1999/xlink" width="177.9984pt" height="288pt" viewBox="0 0 177.9984 288" xmlns="http://www.w3.org/2000/svg" version="1.1">
 <metadata>
  <rdf:RDF xmlns:dc="http://purl.org/dc/elements/1.1/" xmlns:cc="http://creativecommons.org/ns#" xmlns:rdf="http://www.w3.org/1999/02/22-rdf-syntax-ns#">
   <cc:Work>
    <dc:type rdf:resource="http://purl.org/dc/dcmitype/StillImage"/>
    <dc:date>2025-03-25T11:09:22.383817</dc:date>
    <dc:format>image/svg+xml</dc:format>
    <dc:creator>
     <cc:Agent>
      <dc:title>Matplotlib v3.5.1, https://matplotlib.org/</dc:title>
     </cc:Agent>
    </dc:creator>
   </cc:Work>
  </rdf:RDF>
 </metadata>
 <defs>
  <style type="text/css">*{stroke-linejoin: round; stroke-linecap: butt}</style>
 </defs>
 <g id="figure_1">
  <g id="patch_1">
   <path d="M 0 288 
L 177.9984 288 
L 177.9984 0 
L 0 0 
z
" style="fill: #ffffff"/>
  </g>
  <g id="axes_1">
   <g id="line2d_1">
    <path d="M 173.076847 280.037633 
L 4.921553 280.037633 
M 173.076847 7.962367 
L 173.076847 280.037633 
M 4.921553 7.962367 
L 4.921553 280.037633 
M 4.921553 7.962367 
L 173.076847 7.962367 
M 88.9992 144 
L 4.921553 280.037633 
M 88.9992 144 
L 173.076847 280.037633 
M 88.9992 144 
L 173.076847 7.962367 
M 88.9992 144 
L 4.921553 7.962367 
" clip-path="url(#p524ffc96fb)" style="fill: none; stroke: #000000; stroke-width: 0.5; stroke-linecap: square"/>
   </g>
   <g id="patch_2">
    <path d="M 173.076847 7.962367 
L 4.921553 7.962367 
L 88.9992 144 
z
" clip-path="url(#p524ffc96fb)" style="fill: #ffa500; opacity: 0.15; stroke: #ffa500; stroke-linejoin: miter"/>
   </g>
   <g id="patch_3">
    <path d="M 88.9992 256.495892 
L 90.680753 259.018221 
L 89.083278 259.018221 
L 89.083278 280.037633 
L 88.915122 280.037633 
L 88.915122 259.018221 
L 87.317647 259.018221 
z
" clip-path="url(#p524ffc96fb)" style="fill: #0000ff; stroke: #0000ff; stroke-linejoin: miter"/>
   </g>
   <g id="patch_4">
    <path d="M 111.012339 224.39563 
L 112.27389 221.639137 
L 113.113745 222.998023 
L 130.993821 211.947296 
L 131.082226 212.090337 
L 113.202151 223.141063 
L 114.042006 224.499949 
z
" clip-path="url(#p524ffc96fb)" style="fill: #0000ff; stroke: #0000ff; stroke-linejoin: miter"/>
   </g>
   <g id="patch_5">
    <path d="M 151.063708 199.642003 
L 149.802157 202.398496 
L 148.962302 201.03961 
L 131.082226 212.090337 
L 130.993821 211.947296 
L 148.873896 200.896569 
L 148.034041 199.537684 
z
" clip-path="url(#p524ffc96fb)" style="fill: #0000ff; stroke: #0000ff; stroke-linejoin: miter"/>
   </g>
   <g id="patch_6">
    <path d="M 149.535106 144 
L 152.057435 142.318447 
L 152.057435 143.915922 
L 173.076847 143.915922 
L 173.076847 144.084078 
L 152.057435 144.084078 
L 152.057435 145.681553 
z
" clip-path="url(#p524ffc96fb)" style="fill: #0000ff; stroke: #0000ff; stroke-linejoin: miter"/>
   </g>
   <g id="patch_7">
    <path d="M 151.063708 88.357997 
L 148.034041 88.462316 
L 148.873896 87.103431 
L 130.993821 76.052704 
L 131.082226 75.909663 
L 148.962302 86.96039 
L 149.802157 85.601504 
z
" clip-path="url(#p524ffc96fb)" style="fill: #0000ff; stroke: #0000ff; stroke-linejoin: miter"/>
   </g>
   <g id="patch_8">
    <path d="M 111.012339 63.60437 
L 114.042006 63.500051 
L 113.202151 64.858937 
L 131.082226 75.909663 
L 130.993821 76.052704 
L 113.113745 65.001977 
L 112.27389 66.360863 
z
" clip-path="url(#p524ffc96fb)" style="fill: #0000ff; stroke: #0000ff; stroke-linejoin: miter"/>
   </g>
   <g id="patch_9">
    <path d="M 28.463294 144 
L 25.940965 145.681553 
L 25.940965 144.084078 
L 4.921553 144.084078 
L 4.921553 143.915922 
L 25.940965 143.915922 
L 25.940965 142.318447 
z
" clip-path="url(#p524ffc96fb)" style="fill: #0000ff; stroke: #0000ff; stroke-linejoin: miter"/>
   </g>
   <g id="patch_10">
    <path d="M 26.934692 199.642003 
L 29.964359 199.537684 
L 29.124504 200.896569 
L 47.004579 211.947296 
L 46.916174 212.090337 
L 29.036098 201.03961 
L 28.196243 202.398496 
z
" clip-path="url(#p524ffc96fb)" style="fill: #0000ff; stroke: #0000ff; stroke-linejoin: miter"/>
   </g>
   <g id="patch_11">
    <path d="M 66.986061 224.39563 
L 63.956394 224.499949 
L 64.796249 223.141063 
L 46.916174 212.090337 
L 47.004579 211.947296 
L 64.884655 222.998023 
L 65.72451 221.639137 
z
" clip-path="url(#p524ffc96fb)" style="fill: #0000ff; stroke: #0000ff; stroke-linejoin: miter"/>
   </g>
   <g id="patch_12">
    <path d="M 88.9992 31.504108 
L 87.317647 28.981779 
L 88.915122 28.981779 
L 88.915122 7.962367 
L 89.083278 7.962367 
L 89.083278 28.981779 
L 90.680753 28.981779 
z
" clip-path="url(#p524ffc96fb)" style="fill: #0000ff; stroke: #0000ff; stroke-linejoin: miter"/>
   </g>
   <g id="patch_13">
    <path d="M 66.986061 63.60437 
L 65.72451 66.360863 
L 64.884655 65.001977 
L 47.004579 76.052704 
L 46.916174 75.909663 
L 64.796249 64.858937 
L 63.956394 63.500051 
z
" clip-path="url(#p524ffc96fb)" style="fill: #0000ff; stroke: #0000ff; stroke-linejoin: miter"/>
   </g>
   <g id="patch_14">
    <path d="M 26.934692 88.357997 
L 28.196243 85.601504 
L 29.036098 86.96039 
L 46.916174 75.909663 
L 47.004579 76.052704 
L 29.124504 87.103431 
L 29.964359 88.462316 
z
" clip-path="url(#p524ffc96fb)" style="fill: #0000ff; stroke: #0000ff; stroke-linejoin: miter"/>
   </g>
   <g id="line2d_2"/>
   <g id="text_1">
    <!-- $0$ -->
    <g style="fill: #228b22" transform="translate(84.887057 237.64441)scale(0.18 -0.18)">
     <defs>
      <path id="CMR17-30" d="M 2688 2038 
C 2688 2430 2682 3099 2413 3613 
C 2176 4063 1798 4224 1466 4224 
C 1158 4224 768 4082 525 3620 
C 269 3137 243 2539 243 2038 
C 243 1671 250 1112 448 623 
C 723 -39 1216 -128 1466 -128 
C 1760 -128 2208 -7 2470 604 
C 2662 1048 2688 1568 2688 2038 
z
M 1466 -26 
C 1056 -26 813 328 723 816 
C 653 1196 653 1749 653 2109 
C 653 2604 653 3015 736 3407 
C 858 3954 1216 4121 1466 4121 
C 1728 4121 2067 3947 2189 3420 
C 2272 3054 2278 2623 2278 2109 
C 2278 1691 2278 1176 2202 797 
C 2067 96 1690 -26 1466 -26 
z
" transform="scale(0.015625)"/>
     </defs>
     <use xlink:href="#CMR17-30" transform="scale(0.996264)"/>
    </g>
   </g>
   <g id="text_2">
    <!-- $1$ -->
    <g style="fill: #228b22" transform="translate(130.318573 148.482618)scale(0.18 -0.18)">
     <defs>
      <path id="CMR17-31" d="M 1702 4083 
C 1702 4217 1696 4224 1606 4224 
C 1357 3927 979 3833 621 3820 
C 602 3820 570 3820 563 3808 
C 557 3795 557 3782 557 3648 
C 755 3648 1088 3686 1344 3839 
L 1344 467 
C 1344 243 1331 166 781 166 
L 589 166 
L 589 0 
C 896 6 1216 12 1523 12 
C 1830 12 2150 6 2458 0 
L 2458 166 
L 2266 166 
C 1715 166 1702 236 1702 467 
L 1702 4083 
z
" transform="scale(0.015625)"/>
     </defs>
     <use xlink:href="#CMR17-31" transform="scale(0.996264)"/>
    </g>
   </g>
   <g id="text_3">
    <!-- $2$ -->
    <g style="fill: #228b22" transform="translate(39.455541 148.482618)scale(0.18 -0.18)">
     <defs>
      <path id="CMR17-32" d="M 2669 990 
L 2554 990 
C 2490 537 2438 460 2413 422 
C 2381 371 1920 371 1830 371 
L 602 371 
C 832 620 1280 1073 1824 1596 
C 2214 1966 2669 2400 2669 3033 
C 2669 3788 2067 4224 1395 4224 
C 691 4224 262 3603 262 3027 
C 262 2777 448 2745 525 2745 
C 589 2745 781 2783 781 3007 
C 781 3206 614 3264 525 3264 
C 486 3264 448 3257 422 3244 
C 544 3788 915 4057 1306 4057 
C 1862 4057 2227 3616 2227 3033 
C 2227 2477 1901 1998 1536 1583 
L 262 147 
L 262 0 
L 2515 0 
L 2669 990 
z
" transform="scale(0.015625)"/>
     </defs>
     <use xlink:href="#CMR17-32" transform="scale(0.996264)"/>
    </g>
   </g>
   <g id="text_4">
    <!-- $3$ -->
    <g style="fill: #228b22" transform="translate(84.887057 59.320826)scale(0.18 -0.18)">
     <defs>
      <path id="CMR17-33" d="M 1414 2176 
C 1984 2176 2234 1673 2234 1094 
C 2234 322 1824 25 1453 25 
C 1114 25 563 193 390 691 
C 422 678 454 678 486 678 
C 640 678 755 780 755 947 
C 755 1132 614 1216 486 1216 
C 378 1216 211 1164 211 927 
C 211 335 787 -128 1466 -128 
C 2176 -128 2720 432 2720 1087 
C 2720 1718 2208 2176 1600 2246 
C 2086 2347 2554 2776 2554 3353 
C 2554 3856 2048 4224 1472 4224 
C 890 4224 378 3862 378 3347 
C 378 3123 544 3084 627 3084 
C 762 3084 877 3167 877 3334 
C 877 3500 762 3584 627 3584 
C 602 3584 570 3584 544 3571 
C 730 3999 1235 4076 1459 4076 
C 1683 4076 2106 3966 2106 3347 
C 2106 3167 2080 2851 1862 2574 
C 1670 2329 1453 2316 1242 2297 
C 1210 2297 1062 2284 1037 2284 
C 992 2278 966 2272 966 2227 
C 966 2182 973 2176 1101 2176 
L 1414 2176 
z
" transform="scale(0.015625)"/>
     </defs>
     <use xlink:href="#CMR17-33" transform="scale(0.996264)"/>
    </g>
   </g>
   <g id="text_5">
    <g id="patch_15">
     <path d="M 84.887057 291.608315 
L 93.111343 291.608315 
Q 96.711343 291.608315 96.711343 288.008315 
L 96.711343 272.066951 
Q 96.711343 268.466951 93.111343 268.466951 
L 84.887057 268.466951 
Q 81.287057 268.466951 81.287057 272.066951 
L 81.287057 288.008315 
Q 81.287057 291.608315 84.887057 291.608315 
z
" style="fill: #ffffff"/>
    </g>
    <!-- $0$ -->
    <g style="fill: #dc143c" transform="translate(84.887057 284.520251)scale(0.18 -0.18)">
     <use xlink:href="#CMR17-30" transform="scale(0.996264)"/>
    </g>
   </g>
   <g id="text_6">
    <g id="patch_16">
     <path d="M 126.925881 223.589499 
L 135.150166 223.589499 
Q 138.750166 223.589499 138.750166 219.989499 
L 138.750166 204.048134 
Q 138.750166 200.448134 135.150166 200.448134 
L 126.925881 200.448134 
Q 123.325881 200.448134 123.325881 204.048134 
L 123.325881 219.989499 
Q 123.325881 223.589499 126.925881 223.589499 
z
" style="fill: #ffffff"/>
    </g>
    <!-- $1$ -->
    <g style="fill: #dc143c" transform="translate(126.925881 216.501434)scale(0.18 -0.18)">
     <use xlink:href="#CMR17-31" transform="scale(0.996264)"/>
    </g>
   </g>
   <g id="text_7">
    <g id="patch_17">
     <path d="M 168.964704 155.570682 
L 177.18899 155.570682 
Q 180.78899 155.570682 180.78899 151.970682 
L 180.78899 136.029318 
Q 180.78899 132.429318 177.18899 132.429318 
L 168.964704 132.429318 
Q 165.364704 132.429318 165.364704 136.029318 
L 165.364704 151.970682 
Q 165.364704 155.570682 168.964704 155.570682 
z
" style="fill: #ffffff"/>
    </g>
    <!-- $2$ -->
    <g style="fill: #dc143c" transform="translate(168.964704 148.482618)scale(0.18 -0.18)">
     <use xlink:href="#CMR17-32" transform="scale(0.996264)"/>
    </g>
   </g>
   <g id="text_8">
    <g id="patch_18">
     <path d="M 126.925881 87.551866 
L 135.150166 87.551866 
Q 138.750166 87.551866 138.750166 83.951866 
L 138.750166 68.010501 
Q 138.750166 64.410501 135.150166 64.410501 
L 126.925881 64.410501 
Q 123.325881 64.410501 123.325881 68.010501 
L 123.325881 83.951866 
Q 123.325881 87.551866 126.925881 87.551866 
z
" style="fill: #ffffff"/>
    </g>
    <!-- $3$ -->
    <g style="fill: #dc143c" transform="translate(126.925881 80.463802)scale(0.18 -0.18)">
     <use xlink:href="#CMR17-33" transform="scale(0.996264)"/>
    </g>
   </g>
   <g id="text_9">
    <g id="patch_19">
     <path d="M 0.80941 155.570682 
L 9.033696 155.570682 
Q 12.633696 155.570682 12.633696 151.970682 
L 12.633696 136.029318 
Q 12.633696 132.429318 9.033696 132.429318 
L 0.80941 132.429318 
Q -2.79059 132.429318 -2.79059 136.029318 
L -2.79059 151.970682 
Q -2.79059 155.570682 0.80941 155.570682 
z
" style="fill: #ffffff"/>
    </g>
    <!-- $4$ -->
    <g style="fill: #dc143c" transform="translate(0.80941 148.482618)scale(0.18 -0.18)">
     <defs>
      <path id="CMR17-34" d="M 2150 4147 
C 2150 4281 2144 4288 2029 4288 
L 128 1254 
L 128 1088 
L 1779 1088 
L 1779 460 
C 1779 230 1766 166 1318 166 
L 1197 166 
L 1197 0 
C 1402 12 1747 12 1965 12 
C 2182 12 2528 12 2733 0 
L 2733 166 
L 2611 166 
C 2163 166 2150 230 2150 460 
L 2150 1088 
L 2803 1088 
L 2803 1254 
L 2150 1254 
L 2150 4147 
z
M 1798 3723 
L 1798 1254 
L 256 1254 
L 1798 3723 
z
" transform="scale(0.015625)"/>
     </defs>
     <use xlink:href="#CMR17-34" transform="scale(0.996264)"/>
    </g>
   </g>
   <g id="text_10">
    <g id="patch_20">
     <path d="M 42.848234 223.589499 
L 51.072519 223.589499 
Q 54.672519 223.589499 54.672519 219.989499 
L 54.672519 204.048134 
Q 54.672519 200.448134 51.072519 200.448134 
L 42.848234 200.448134 
Q 39.248234 200.448134 39.248234 204.048134 
L 39.248234 219.989499 
Q 39.248234 223.589499 42.848234 223.589499 
z
" style="fill: #ffffff"/>
    </g>
    <!-- $5$ -->
    <g style="fill: #dc143c" transform="translate(42.848234 216.501434)scale(0.18 -0.18)">
     <defs>
      <path id="CMR17-35" d="M 730 3750 
C 794 3724 1056 3641 1325 3641 
C 1920 3641 2246 3961 2432 4140 
C 2432 4191 2432 4224 2394 4224 
C 2387 4224 2374 4224 2323 4198 
C 2099 4102 1837 4032 1517 4032 
C 1325 4032 1037 4055 723 4191 
C 653 4224 640 4224 634 4224 
C 602 4224 595 4217 595 4090 
L 595 2231 
C 595 2113 595 2080 659 2080 
C 691 2080 704 2093 736 2139 
C 941 2435 1222 2560 1542 2560 
C 1766 2560 2246 2415 2246 1293 
C 2246 1087 2246 716 2054 422 
C 1894 159 1645 25 1370 25 
C 947 25 518 319 403 812 
C 429 806 480 793 506 793 
C 589 793 749 838 749 1036 
C 749 1209 627 1280 506 1280 
C 358 1280 262 1190 262 1011 
C 262 454 704 -128 1382 -128 
C 2042 -128 2669 441 2669 1267 
C 2669 2054 2170 2662 1549 2662 
C 1222 2662 947 2540 730 2304 
L 730 3750 
z
" transform="scale(0.015625)"/>
     </defs>
     <use xlink:href="#CMR17-35" transform="scale(0.996264)"/>
    </g>
   </g>
   <g id="text_11">
    <g id="patch_21">
     <path d="M 84.887057 19.533049 
L 93.111343 19.533049 
Q 96.711343 19.533049 96.711343 15.933049 
L 96.711343 -0.008315 
Q 96.711343 -3.608315 93.111343 -3.608315 
L 84.887057 -3.608315 
Q 81.287057 -3.608315 81.287057 -0.008315 
L 81.287057 15.933049 
Q 81.287057 19.533049 84.887057 19.533049 
z
" style="fill: #ffffff"/>
    </g>
    <!-- $6$ -->
    <g style="fill: #dc143c" transform="translate(84.887057 12.444985)scale(0.18 -0.18)">
     <defs>
      <path id="CMR17-36" d="M 678 2198 
C 678 3712 1395 4076 1811 4076 
C 1946 4076 2272 4049 2400 3782 
C 2298 3782 2106 3782 2106 3558 
C 2106 3385 2246 3328 2336 3328 
C 2394 3328 2566 3353 2566 3571 
C 2566 3987 2246 4224 1805 4224 
C 1043 4224 243 3411 243 2011 
C 243 257 966 -128 1478 -128 
C 2099 -128 2688 431 2688 1295 
C 2688 2101 2170 2688 1517 2688 
C 1126 2688 838 2430 678 1979 
L 678 2198 
z
M 1478 25 
C 691 25 691 1212 691 1450 
C 691 1914 909 2585 1504 2585 
C 1613 2585 1926 2585 2138 2140 
C 2253 1889 2253 1624 2253 1302 
C 2253 954 2253 696 2118 438 
C 1978 173 1773 25 1478 25 
z
" transform="scale(0.015625)"/>
     </defs>
     <use xlink:href="#CMR17-36" transform="scale(0.996264)"/>
    </g>
   </g>
   <g id="text_12">
    <g id="patch_22">
     <path d="M 42.848234 87.551866 
L 51.072519 87.551866 
Q 54.672519 87.551866 54.672519 83.951866 
L 54.672519 68.010501 
Q 54.672519 64.410501 51.072519 64.410501 
L 42.848234 64.410501 
Q 39.248234 64.410501 39.248234 68.010501 
L 39.248234 83.951866 
Q 39.248234 87.551866 42.848234 87.551866 
z
" style="fill: #ffffff"/>
    </g>
    <!-- $7$ -->
    <g style="fill: #dc143c" transform="translate(42.848234 80.463802)scale(0.18 -0.18)">
     <defs>
      <path id="CMR17-37" d="M 2886 3955 
L 2886 4096 
L 1382 4096 
C 634 4096 621 4166 595 4288 
L 480 4288 
L 294 3104 
L 410 3104 
C 429 3226 474 3552 550 3673 
C 589 3724 1062 3724 1171 3724 
L 2579 3724 
L 1869 2670 
C 1395 1961 1069 1003 1069 166 
C 1069 89 1069 -128 1299 -128 
C 1530 -128 1530 89 1530 172 
L 1530 466 
C 1530 1514 1709 2204 2003 2644 
L 2886 3955 
z
" transform="scale(0.015625)"/>
     </defs>
     <use xlink:href="#CMR17-37" transform="scale(0.996264)"/>
    </g>
   </g>
  </g>
 </g>
 <defs>
  <clipPath id="p524ffc96fb">
   <rect x="3.24" y="3.24" width="171.5184" height="281.52"/>
  </clipPath>
 </defs>
</svg>
