<?xml version="1.0" encoding="utf-8" standalone="no"?>
<!DOCTYPE svg PUBLIC "-//W3C//DTD SVG 1.1//EN"
  "http://www.w3.org/Graphics/SVG/1.1/DTD/svg11.dtd">
<svg xmlns:xlink="http://www.w3.org/1999/xlink" width="964.08pt" height="899.261923pt" viewBox="0 0 964.08 899.261923" xmlns="http://www.w3.org/2000/svg" version="1.1">
 <metadata>
  <rdf:RDF xmlns:dc="http://purl.org/dc/elements/1.1/" xmlns:cc="http://creativecommons.org/ns#" xmlns:rdf="http://www.w3.org/1999/02/22-rdf-syntax-ns#">
   <cc:Work>
    <dc:type rdf:resource="http://purl.org/dc/dcmitype/StillImage"/>
    <dc:date>2025-05-28T17:24:29.758781</dc:date>
    <dc:format>image/svg+xml</dc:format>
    <dc:creator>
     <cc:Agent>
      <dc:title>Matplotlib v3.5.1, https://matplotlib.org/</dc:title>
     </cc:Agent>
    </dc:creator>
   </cc:Work>
  </rdf:RDF>
 </metadata>
 <defs>
  <style type="text/css">*{stroke-linejoin: round; stroke-linecap: butt}</style>
 </defs>
 <g id="figure_1">
  <g id="patch_1">
   <path d="M 0 899.261923 
L 964.08 899.261923 
L 964.08 0 
L 0 0 
z
" style="fill: #ffffff"/>
  </g>
  <g id="axes_1">
   <g id="patch_2">
    <path d="M 98.700871 264.602697 
L 956.88 264.602697 
L 956.88 14.381923 
L 98.700871 14.381923 
z
" style="fill: #ffffff"/>
   </g>
   <g id="matplotlib.axis_1">
    <g id="xtick_1">
     <g id="line2d_1">
      <path d="M 137.709014 264.602697 
L 137.709014 14.381923 
" clip-path="url(#pa6c7ba342c)" style="fill: none; stroke: #808080; stroke-width: 0.5; stroke-linecap: square"/>
     </g>
     <g id="line2d_2">
      <defs>
       <path id="mcdbd72b664" d="M 0 0 
L 0 3.5 
" style="stroke: #000000; stroke-width: 0.8"/>
      </defs>
      <g>
       <use xlink:href="#mcdbd72b664" x="137.709014" y="264.602697" style="stroke: #000000; stroke-width: 0.8"/>
      </g>
     </g>
    </g>
    <g id="xtick_2">
     <g id="line2d_3">
      <path d="M 269.940004 264.602697 
L 269.940004 14.381923 
" clip-path="url(#pa6c7ba342c)" style="fill: none; stroke: #808080; stroke-width: 0.5; stroke-linecap: square"/>
     </g>
     <g id="line2d_4">
      <g>
       <use xlink:href="#mcdbd72b664" x="269.940004" y="264.602697" style="stroke: #000000; stroke-width: 0.8"/>
      </g>
     </g>
    </g>
    <g id="xtick_3">
     <g id="line2d_5">
      <path d="M 402.170995 264.602697 
L 402.170995 14.381923 
" clip-path="url(#pa6c7ba342c)" style="fill: none; stroke: #808080; stroke-width: 0.5; stroke-linecap: square"/>
     </g>
     <g id="line2d_6">
      <g>
       <use xlink:href="#mcdbd72b664" x="402.170995" y="264.602697" style="stroke: #000000; stroke-width: 0.8"/>
      </g>
     </g>
    </g>
    <g id="xtick_4">
     <g id="line2d_7">
      <path d="M 534.401985 264.602697 
L 534.401985 14.381923 
" clip-path="url(#pa6c7ba342c)" style="fill: none; stroke: #808080; stroke-width: 0.5; stroke-linecap: square"/>
     </g>
     <g id="line2d_8">
      <g>
       <use xlink:href="#mcdbd72b664" x="534.401985" y="264.602697" style="stroke: #000000; stroke-width: 0.8"/>
      </g>
     </g>
    </g>
    <g id="xtick_5">
     <g id="line2d_9">
      <path d="M 666.632976 264.602697 
L 666.632976 14.381923 
" clip-path="url(#pa6c7ba342c)" style="fill: none; stroke: #808080; stroke-width: 0.5; stroke-linecap: square"/>
     </g>
     <g id="line2d_10">
      <g>
       <use xlink:href="#mcdbd72b664" x="666.632976" y="264.602697" style="stroke: #000000; stroke-width: 0.8"/>
      </g>
     </g>
    </g>
    <g id="xtick_6">
     <g id="line2d_11">
      <path d="M 798.863966 264.602697 
L 798.863966 14.381923 
" clip-path="url(#pa6c7ba342c)" style="fill: none; stroke: #808080; stroke-width: 0.5; stroke-linecap: square"/>
     </g>
     <g id="line2d_12">
      <g>
       <use xlink:href="#mcdbd72b664" x="798.863966" y="264.602697" style="stroke: #000000; stroke-width: 0.8"/>
      </g>
     </g>
    </g>
    <g id="xtick_7">
     <g id="line2d_13">
      <path d="M 931.094957 264.602697 
L 931.094957 14.381923 
" clip-path="url(#pa6c7ba342c)" style="fill: none; stroke: #808080; stroke-width: 0.5; stroke-linecap: square"/>
     </g>
     <g id="line2d_14">
      <g>
       <use xlink:href="#mcdbd72b664" x="931.094957" y="264.602697" style="stroke: #000000; stroke-width: 0.8"/>
      </g>
     </g>
    </g>
   </g>
   <g id="matplotlib.axis_2">
    <g id="ytick_1">
     <g id="line2d_15">
      <path d="M 98.700871 177.404549 
L 956.88 177.404549 
" clip-path="url(#pa6c7ba342c)" style="fill: none; stroke: #808080; stroke-width: 0.5; stroke-linecap: square"/>
     </g>
     <g id="line2d_16">
      <defs>
       <path id="m2f8c641aa4" d="M 0 0 
L -3.5 0 
" style="stroke: #000000; stroke-width: 0.8"/>
      </defs>
      <g>
       <use xlink:href="#m2f8c641aa4" x="98.700871" y="177.404549" style="stroke: #000000; stroke-width: 0.8"/>
      </g>
     </g>
     <g id="text_1">
      <!-- $\mathdefault{10^{-12}}$ -->
      <g transform="translate(35.112054 186.744524)scale(0.27 -0.27)">
       <defs>
        <path id="CMR17-31" d="M 1702 4083 
C 1702 4217 1696 4224 1606 4224 
C 1357 3927 979 3833 621 3820 
C 602 3820 570 3820 563 3808 
C 557 3795 557 3782 557 3648 
C 755 3648 1088 3686 1344 3839 
L 1344 467 
C 1344 243 1331 166 781 166 
L 589 166 
L 589 0 
C 896 6 1216 12 1523 12 
C 1830 12 2150 6 2458 0 
L 2458 166 
L 2266 166 
C 1715 166 1702 236 1702 467 
L 1702 4083 
z
" transform="scale(0.015625)"/>
        <path id="CMR17-30" d="M 2688 2038 
C 2688 2430 2682 3099 2413 3613 
C 2176 4063 1798 4224 1466 4224 
C 1158 4224 768 4082 525 3620 
C 269 3137 243 2539 243 2038 
C 243 1671 250 1112 448 623 
C 723 -39 1216 -128 1466 -128 
C 1760 -128 2208 -7 2470 604 
C 2662 1048 2688 1568 2688 2038 
z
M 1466 -26 
C 1056 -26 813 328 723 816 
C 653 1196 653 1749 653 2109 
C 653 2604 653 3015 736 3407 
C 858 3954 1216 4121 1466 4121 
C 1728 4121 2067 3947 2189 3420 
C 2272 3054 2278 2623 2278 2109 
C 2278 1691 2278 1176 2202 797 
C 2067 96 1690 -26 1466 -26 
z
" transform="scale(0.015625)"/>
        <path id="CMSY10-0" d="M 4218 1472 
C 4326 1472 4442 1472 4442 1600 
C 4442 1728 4326 1728 4218 1728 
L 755 1728 
C 646 1728 531 1728 531 1600 
C 531 1472 646 1472 755 1472 
L 4218 1472 
z
" transform="scale(0.015625)"/>
        <path id="CMR17-32" d="M 2669 990 
L 2554 990 
C 2490 537 2438 460 2413 422 
C 2381 371 1920 371 1830 371 
L 602 371 
C 832 620 1280 1073 1824 1596 
C 2214 1966 2669 2400 2669 3033 
C 2669 3788 2067 4224 1395 4224 
C 691 4224 262 3603 262 3027 
C 262 2777 448 2745 525 2745 
C 589 2745 781 2783 781 3007 
C 781 3206 614 3264 525 3264 
C 486 3264 448 3257 422 3244 
C 544 3788 915 4057 1306 4057 
C 1862 4057 2227 3616 2227 3033 
C 2227 2477 1901 1998 1536 1583 
L 262 147 
L 262 0 
L 2515 0 
L 2669 990 
z
" transform="scale(0.015625)"/>
       </defs>
       <use xlink:href="#CMR17-31" transform="scale(0.996264)"/>
       <use xlink:href="#CMR17-30" transform="translate(45.690477 0)scale(0.996264)"/>
       <use xlink:href="#CMSY10-0" transform="translate(91.380954 36.153639)scale(0.697382)"/>
       <use xlink:href="#CMR17-31" transform="translate(145.621947 36.153639)scale(0.697382)"/>
       <use xlink:href="#CMR17-32" transform="translate(177.605129 36.153639)scale(0.697382)"/>
      </g>
     </g>
    </g>
    <g id="ytick_2">
     <g id="line2d_17">
      <path d="M 98.700871 25.755595 
L 956.88 25.755595 
" clip-path="url(#pa6c7ba342c)" style="fill: none; stroke: #808080; stroke-width: 0.5; stroke-linecap: square"/>
     </g>
     <g id="line2d_18">
      <g>
       <use xlink:href="#m2f8c641aa4" x="98.700871" y="25.755595" style="stroke: #000000; stroke-width: 0.8"/>
      </g>
     </g>
     <g id="text_2">
      <!-- $\mathdefault{10^{-10}}$ -->
      <g transform="translate(35.112054 35.09557)scale(0.27 -0.27)">
       <use xlink:href="#CMR17-31" transform="scale(0.996264)"/>
       <use xlink:href="#CMR17-30" transform="translate(45.690477 0)scale(0.996264)"/>
       <use xlink:href="#CMSY10-0" transform="translate(91.380954 36.153639)scale(0.697382)"/>
       <use xlink:href="#CMR17-31" transform="translate(145.621947 36.153639)scale(0.697382)"/>
       <use xlink:href="#CMR17-30" transform="translate(177.605129 36.153639)scale(0.697382)"/>
      </g>
     </g>
    </g>
    <g id="text_3">
     <!-- Max. absolute difference -->
     <g transform="translate(25.87995 271.78462)rotate(-90)scale(0.27 -0.27)">
      <defs>
       <path id="CMR17-4d" d="M 1338 4249 
C 1299 4345 1293 4352 1158 4352 
L 339 4352 
L 339 4185 
C 781 4185 851 4185 851 3898 
L 851 624 
C 851 465 851 166 339 166 
L 339 0 
C 486 12 755 12 915 12 
C 1075 12 1344 12 1491 0 
L 1491 166 
C 979 166 979 465 979 624 
L 979 4159 
L 986 4159 
L 2490 102 
C 2515 38 2528 0 2579 0 
C 2630 0 2643 38 2669 102 
L 4186 4191 
L 4192 4191 
L 4192 453 
C 4192 166 4122 166 3680 166 
L 3680 0 
C 3853 12 4198 12 4384 12 
C 4570 12 4922 12 5094 0 
L 5094 166 
C 4653 166 4582 166 4582 453 
L 4582 3898 
C 4582 4185 4653 4185 5094 4185 
L 5094 4352 
L 4282 4352 
C 4147 4352 4141 4345 4102 4249 
L 2720 516 
L 1338 4249 
z
" transform="scale(0.015625)"/>
       <path id="CMR17-61" d="M 2304 1656 
C 2304 2048 2304 2275 2035 2534 
C 1798 2751 1523 2816 1306 2816 
C 800 2816 435 2408 435 1977 
C 435 1740 627 1728 666 1728 
C 749 1728 896 1779 896 1958 
C 896 2118 774 2188 666 2188 
C 640 2188 608 2182 589 2176 
C 723 2594 1069 2713 1293 2713 
C 1613 2713 1965 2421 1965 1875 
L 1965 1632 
C 1587 1619 1133 1568 774 1373 
C 371 1147 256 822 256 576 
C 256 77 832 -64 1171 -64 
C 1523 -64 1850 135 1990 505 
C 2003 219 2182 -39 2464 -39 
C 2598 -39 2938 51 2938 563 
L 2938 926 
L 2822 926 
L 2822 557 
C 2822 161 2650 109 2566 109 
C 2304 109 2304 446 2304 732 
L 2304 1656 
z
M 1965 887 
C 1965 323 1568 38 1216 38 
C 896 38 646 278 646 576 
C 646 771 730 1114 1101 1322 
C 1408 1497 1760 1523 1965 1536 
L 1965 887 
z
" transform="scale(0.015625)"/>
       <path id="CMR17-78" d="M 1664 1491 
C 1856 1740 2074 2022 2253 2233 
C 2464 2476 2707 2579 2989 2585 
L 2989 2752 
C 2880 2745 2656 2739 2541 2739 
C 2368 2739 2170 2739 2022 2752 
L 2022 2585 
C 2112 2572 2163 2508 2163 2419 
C 2163 2304 2099 2233 2067 2188 
L 1594 1587 
L 1030 2323 
C 973 2393 973 2406 973 2438 
C 973 2515 1037 2579 1146 2585 
L 1146 2752 
C 992 2739 717 2739 557 2739 
C 384 2739 179 2739 38 2752 
L 38 2585 
C 384 2585 461 2560 614 2368 
L 1350 1414 
C 1363 1401 1395 1363 1395 1344 
C 1395 1318 838 633 768 544 
C 480 198 179 172 6 166 
L 6 0 
C 115 6 339 12 454 12 
C 582 12 864 12 979 0 
L 979 166 
C 941 172 838 185 838 332 
C 838 448 890 518 947 595 
L 1478 1248 
L 2035 524 
C 2086 454 2163 358 2163 313 
C 2163 224 2086 172 1984 166 
L 1984 0 
C 2138 12 2413 12 2573 12 
C 2746 12 2950 12 3091 0 
L 3091 166 
C 2771 166 2675 179 2522 377 
L 1664 1491 
z
" transform="scale(0.015625)"/>
       <path id="CMR17-2e" d="M 1062 262 
C 1062 422 934 524 800 524 
C 672 524 538 422 538 262 
C 538 102 666 0 800 0 
C 928 0 1062 102 1062 262 
z
" transform="scale(0.015625)"/>
       <path id="CMR17-62" d="M 960 4416 
L 198 4345 
L 198 4179 
C 576 4179 634 4141 634 3843 
L 634 -13 
L 749 -13 
L 934 445 
C 1120 141 1395 -64 1766 -64 
C 2406 -64 3053 503 3053 1382 
C 3053 2209 2477 2816 1830 2816 
C 1434 2816 1152 2603 960 2351 
L 960 4416 
z
M 973 2022 
C 973 2138 973 2157 1062 2293 
C 1312 2681 1670 2713 1792 2713 
C 1984 2713 2643 2610 2643 1388 
C 2643 109 1888 38 1734 38 
C 1536 38 1248 115 1043 490 
C 973 613 973 626 973 742 
L 973 2022 
z
" transform="scale(0.015625)"/>
       <path id="CMR17-73" d="M 1978 2688 
C 1978 2803 1971 2809 1933 2809 
C 1907 2809 1901 2803 1824 2707 
C 1805 2681 1747 2617 1728 2592 
C 1523 2809 1235 2816 1126 2816 
C 416 2816 160 2444 160 2073 
C 160 1497 813 1363 998 1324 
C 1402 1241 1542 1216 1677 1100 
C 1760 1024 1901 883 1901 652 
C 1901 384 1747 38 1158 38 
C 602 38 403 460 288 1024 
C 269 1113 269 1120 218 1120 
C 166 1120 160 1113 160 985 
L 160 64 
C 160 -52 166 -58 205 -58 
C 237 -58 243 -52 275 0 
C 314 57 410 211 448 275 
C 576 102 800 -64 1158 -64 
C 1792 -64 2131 281 2131 780 
C 2131 1107 1958 1280 1875 1356 
C 1683 1555 1459 1600 1190 1651 
C 838 1728 390 1817 390 2208 
C 390 2374 480 2726 1126 2726 
C 1811 2726 1850 2086 1862 1881 
C 1869 1849 1901 1843 1920 1843 
C 1978 1843 1978 1862 1978 1971 
L 1978 2688 
z
" transform="scale(0.015625)"/>
       <path id="CMR17-6f" d="M 2758 1356 
C 2758 2176 2163 2816 1466 2816 
C 768 2816 173 2176 173 1356 
C 173 550 768 -64 1466 -64 
C 2163 -64 2758 550 2758 1356 
z
M 1466 51 
C 1165 51 909 230 762 480 
C 602 768 582 1126 582 1408 
C 582 1676 595 2009 762 2297 
C 890 2508 1139 2713 1466 2713 
C 1754 2713 1997 2553 2150 2329 
C 2349 2028 2349 1606 2349 1408 
C 2349 1158 2336 774 2163 467 
C 1984 172 1709 51 1466 51 
z
" transform="scale(0.015625)"/>
       <path id="CMR17-6c" d="M 979 4416 
L 218 4345 
L 218 4179 
C 595 4179 653 4141 653 3835 
L 653 439 
C 653 198 627 166 218 166 
L 218 0 
C 371 12 653 12 813 12 
C 979 12 1261 12 1414 0 
L 1414 166 
C 1005 166 979 191 979 439 
L 979 4416 
z
" transform="scale(0.015625)"/>
       <path id="CMR17-75" d="M 1882 2745 
L 1882 2579 
C 2259 2579 2317 2540 2317 2229 
L 2317 1053 
C 2317 510 2029 38 1555 38 
C 1030 38 986 355 986 691 
L 986 2816 
L 211 2745 
L 211 2579 
C 467 2579 640 2579 646 2320 
L 646 1079 
C 646 646 646 368 813 187 
C 896 103 1056 -64 1517 -64 
C 2061 -64 2272 400 2323 536 
L 2330 536 
L 2330 -64 
L 3091 -13 
L 3091 154 
C 2714 154 2656 193 2656 503 
L 2656 2816 
L 1882 2745 
z
" transform="scale(0.015625)"/>
       <path id="CMR17-74" d="M 966 2585 
L 1862 2585 
L 1862 2752 
L 966 2752 
L 966 3968 
L 851 3968 
C 838 3292 614 2700 70 2687 
L 70 2585 
L 627 2585 
L 627 778 
C 627 655 627 -64 1370 -64 
C 1747 -64 1965 308 1965 784 
L 1965 1151 
L 1850 1151 
L 1850 790 
C 1850 347 1677 51 1408 51 
C 1222 51 966 179 966 765 
L 966 2585 
z
" transform="scale(0.015625)"/>
       <path id="CMR17-65" d="M 2438 1503 
C 2464 1529 2464 1542 2464 1606 
C 2464 2251 2118 2816 1389 2816 
C 710 2816 173 2175 173 1394 
C 173 554 781 -64 1459 -64 
C 2176 -64 2458 619 2458 755 
C 2458 800 2419 800 2406 800 
C 2362 800 2355 787 2330 709 
C 2189 270 1837 51 1504 51 
C 1229 51 954 206 781 490 
C 582 819 582 1200 582 1503 
L 2438 1503 
z
M 589 1600 
C 634 2511 1126 2713 1382 2713 
C 1818 2713 2112 2308 2118 1600 
L 589 1600 
z
" transform="scale(0.015625)"/>
       <path id="CMR17-64" d="M 1869 4345 
L 1869 4179 
C 2246 4179 2304 4141 2304 3843 
L 2304 2371 
C 2278 2403 2016 2816 1498 2816 
C 845 2816 211 2228 211 1376 
C 211 529 806 -64 1434 -64 
C 1978 -64 2259 361 2291 406 
L 2291 -64 
L 3066 -13 
L 3066 154 
C 2688 154 2630 193 2630 503 
L 2630 4416 
L 1869 4345 
z
M 2291 762 
C 2291 568 2176 393 2029 264 
C 1811 70 1594 38 1472 38 
C 1286 38 621 135 621 1369 
C 621 2636 1363 2713 1530 2713 
C 1824 2713 2061 2545 2208 2313 
C 2291 2177 2291 2157 2291 2041 
L 2291 762 
z
" transform="scale(0.015625)"/>
       <path id="CMR17-69" d="M 992 3961 
C 992 4102 877 4224 730 4224 
C 589 4224 467 4108 467 3961 
C 467 3820 582 3699 730 3699 
C 870 3699 992 3814 992 3961 
z
M 243 2745 
L 243 2579 
C 602 2579 653 2540 653 2231 
L 653 443 
C 653 198 627 166 218 166 
L 218 0 
C 371 12 646 12 806 12 
C 960 12 1222 12 1370 0 
L 1370 166 
C 992 166 979 205 979 436 
L 979 2816 
L 243 2745 
z
" transform="scale(0.015625)"/>
       <path id="CMR17-b" d="M 2554 2585 
L 3283 2585 
L 3283 2752 
L 2541 2752 
L 2541 3520 
C 2541 4047 2810 4377 3085 4377 
C 3168 4377 3264 4352 3328 4307 
C 3277 4294 3142 4250 3142 4091 
C 3142 3926 3270 3875 3360 3875 
C 3450 3875 3578 3926 3578 4091 
C 3578 4333 3347 4480 3091 4480 
C 2842 4480 2637 4358 2477 4206 
C 2330 4415 2086 4480 1837 4480 
C 1338 4480 634 4193 634 3494 
L 634 2752 
L 122 2752 
L 122 2585 
L 634 2585 
L 634 441 
C 634 198 608 166 198 166 
L 198 0 
C 352 12 634 12 794 12 
C 960 12 1242 12 1395 0 
L 1395 166 
C 986 166 960 192 960 441 
L 960 2585 
L 2227 2585 
L 2227 441 
C 2227 198 2202 166 1792 166 
L 1792 0 
C 1946 12 2240 12 2406 12 
C 2592 12 2918 12 3091 0 
L 3091 166 
C 2630 166 2554 166 2554 454 
L 2554 2585 
z
M 947 2752 
L 947 3494 
C 947 4072 1395 4377 1824 4377 
C 1920 4377 2170 4358 2323 4218 
C 2208 4212 2099 4161 2099 4002 
C 2099 3837 2246 3793 2259 3793 
C 2227 3679 2227 3552 2227 3507 
L 2227 2752 
L 947 2752 
z
" transform="scale(0.015625)"/>
       <path id="CMR17-72" d="M 960 1517 
C 960 2134 1222 2713 1702 2713 
C 1747 2713 1792 2707 1837 2687 
C 1837 2687 1696 2642 1696 2475 
C 1696 2321 1818 2257 1914 2257 
C 1990 2257 2131 2302 2131 2482 
C 2131 2687 1926 2816 1709 2816 
C 1222 2816 1011 2340 947 2115 
L 941 2115 
L 941 2816 
L 198 2745 
L 198 2578 
C 576 2578 634 2540 634 2231 
L 634 443 
C 634 198 608 166 198 166 
L 198 0 
C 352 12 646 12 813 12 
C 998 12 1325 12 1498 0 
L 1498 166 
C 1037 166 960 166 960 455 
L 960 1517 
z
" transform="scale(0.015625)"/>
       <path id="CMR17-6e" d="M 2656 1954 
C 2656 2282 2592 2816 1837 2816 
C 1331 2816 1069 2424 973 2166 
L 966 2166 
L 966 2816 
L 211 2745 
L 211 2578 
C 589 2578 646 2540 646 2231 
L 646 443 
C 646 198 621 166 211 166 
L 211 0 
C 365 12 646 12 813 12 
C 979 12 1267 12 1421 0 
L 1421 166 
C 1011 166 986 192 986 443 
L 986 1678 
C 986 2269 1344 2713 1792 2713 
C 2266 2713 2317 2289 2317 1980 
L 2317 443 
C 2317 198 2291 166 1882 166 
L 1882 0 
C 2035 12 2317 12 2483 12 
C 2650 12 2938 12 3091 0 
L 3091 166 
C 2682 166 2656 192 2656 443 
L 2656 1954 
z
" transform="scale(0.015625)"/>
       <path id="CMR17-63" d="M 2234 2240 
C 2112 2240 1933 2240 1933 2015 
C 1933 1836 2080 1785 2163 1785 
C 2208 1785 2394 1804 2394 2028 
C 2394 2476 1958 2816 1466 2816 
C 787 2816 211 2201 211 1379 
C 211 521 813 -64 1466 -64 
C 2259 -64 2458 676 2458 747 
C 2458 773 2451 792 2406 792 
C 2362 792 2355 786 2330 702 
C 2163 180 1798 51 1523 51 
C 1114 51 621 431 621 1385 
C 621 2358 1094 2700 1472 2700 
C 1722 2700 2093 2582 2234 2240 
z
" transform="scale(0.015625)"/>
      </defs>
      <use xlink:href="#CMR17-4d" transform="scale(0.996264)"/>
      <use xlink:href="#CMR17-61" transform="translate(84.686941 0)scale(0.996264)"/>
      <use xlink:href="#CMR17-78" transform="translate(130.377418 0)scale(0.996264)"/>
      <use xlink:href="#CMR17-2e" transform="translate(178.670334 0)scale(0.996264)"/>
      <use xlink:href="#CMR17-61" transform="translate(244.027052 0)scale(0.996264)"/>
      <use xlink:href="#CMR17-62" transform="translate(289.71753 0)scale(0.996264)"/>
      <use xlink:href="#CMR17-73" transform="translate(340.612899 0)scale(0.996264)"/>
      <use xlink:href="#CMR17-6f" transform="translate(376.414237 0)scale(0.996264)"/>
      <use xlink:href="#CMR17-6c" transform="translate(422.104714 0)scale(0.996264)"/>
      <use xlink:href="#CMR17-75" transform="translate(446.975773 0)scale(0.996264)"/>
      <use xlink:href="#CMR17-74" transform="translate(497.871142 0)scale(0.996264)"/>
      <use xlink:href="#CMR17-65" transform="translate(533.15191 0)scale(0.996264)"/>
      <use xlink:href="#CMR17-64" transform="translate(603.713537 0)scale(0.996264)"/>
      <use xlink:href="#CMR17-69" transform="translate(654.608907 0)scale(0.996264)"/>
      <use xlink:href="#CMR17-b" transform="translate(679.479965 0)scale(0.996264)"/>
      <use xlink:href="#CMR17-65" transform="translate(731.824643 0)scale(0.996264)"/>
      <use xlink:href="#CMR17-72" transform="translate(772.310303 0)scale(0.996264)"/>
      <use xlink:href="#CMR17-65" transform="translate(807.591071 0)scale(0.996264)"/>
      <use xlink:href="#CMR17-6e" transform="translate(848.076731 0)scale(0.996264)"/>
      <use xlink:href="#CMR17-63" transform="translate(898.972101 0)scale(0.996264)"/>
      <use xlink:href="#CMR17-65" transform="translate(939.457762 0)scale(0.996264)"/>
     </g>
    </g>
   </g>
   <g id="line2d_19">
    <path d="M 150.932113 253.229026 
L 164.155212 253.229026 
L 177.378311 177.404549 
L 190.60141 253.229026 
L 203.824509 253.229026 
L 217.047608 101.580072 
L 230.270707 101.580072 
L 243.493806 253.229026 
L 256.716905 177.404549 
L 269.940004 177.404549 
L 283.163103 177.404549 
L 296.386202 177.404549 
L 309.609301 177.404549 
L 322.8324 177.404549 
L 336.055499 177.404549 
L 349.278598 177.404549 
L 362.501698 177.404549 
L 375.724797 25.755595 
L 388.947896 177.404549 
L 402.170995 101.580072 
L 415.394094 101.580072 
L 428.617193 177.404549 
L 441.840292 177.404549 
L 455.063391 177.404549 
L 468.28649 253.229026 
L 481.509589 101.580072 
L 494.732688 177.404549 
L 507.955787 177.404549 
L 521.178886 101.580072 
L 534.401985 177.404549 
L 547.625084 101.580072 
L 560.848183 177.404549 
L 574.071282 101.580072 
L 587.294381 177.404549 
L 600.51748 177.404549 
L 613.74058 177.404549 
L 626.963679 177.404549 
L 640.186778 101.580072 
L 653.409877 177.404549 
L 666.632976 177.404549 
L 679.856075 177.404549 
L 693.079174 177.404549 
L 706.302273 177.404549 
L 719.525372 101.580072 
L 732.748471 25.755595 
L 745.97157 101.580072 
L 759.194669 25.755595 
L 772.417768 177.404549 
L 785.640867 177.404549 
L 798.863966 101.580072 
L 812.087065 101.580072 
" clip-path="url(#pa6c7ba342c)" style="fill: none; stroke: #0000ff; stroke-width: 3; stroke-linecap: square"/>
    <defs>
     <path id="m2a049c4f72" d="M 0 4 
C 1.060812 4 2.078319 3.578535 2.828427 2.828427 
C 3.578535 2.078319 4 1.060812 4 0 
C 4 -1.060812 3.578535 -2.078319 2.828427 -2.828427 
C 2.078319 -3.578535 1.060812 -4 0 -4 
C -1.060812 -4 -2.078319 -3.578535 -2.828427 -2.828427 
C -3.578535 -2.078319 -4 -1.060812 -4 0 
C -4 1.060812 -3.578535 2.078319 -2.828427 2.828427 
C -2.078319 3.578535 -1.060812 4 0 4 
z
" style="stroke: #0000ff"/>
    </defs>
    <g clip-path="url(#pa6c7ba342c)">
     <use xlink:href="#m2a049c4f72" x="150.932113" y="253.229026" style="fill: #0000ff; stroke: #0000ff"/>
     <use xlink:href="#m2a049c4f72" x="164.155212" y="253.229026" style="fill: #0000ff; stroke: #0000ff"/>
     <use xlink:href="#m2a049c4f72" x="177.378311" y="177.404549" style="fill: #0000ff; stroke: #0000ff"/>
     <use xlink:href="#m2a049c4f72" x="190.60141" y="253.229026" style="fill: #0000ff; stroke: #0000ff"/>
     <use xlink:href="#m2a049c4f72" x="203.824509" y="253.229026" style="fill: #0000ff; stroke: #0000ff"/>
     <use xlink:href="#m2a049c4f72" x="217.047608" y="101.580072" style="fill: #0000ff; stroke: #0000ff"/>
     <use xlink:href="#m2a049c4f72" x="230.270707" y="101.580072" style="fill: #0000ff; stroke: #0000ff"/>
     <use xlink:href="#m2a049c4f72" x="243.493806" y="253.229026" style="fill: #0000ff; stroke: #0000ff"/>
     <use xlink:href="#m2a049c4f72" x="256.716905" y="177.404549" style="fill: #0000ff; stroke: #0000ff"/>
     <use xlink:href="#m2a049c4f72" x="269.940004" y="177.404549" style="fill: #0000ff; stroke: #0000ff"/>
     <use xlink:href="#m2a049c4f72" x="283.163103" y="177.404549" style="fill: #0000ff; stroke: #0000ff"/>
     <use xlink:href="#m2a049c4f72" x="296.386202" y="177.404549" style="fill: #0000ff; stroke: #0000ff"/>
     <use xlink:href="#m2a049c4f72" x="309.609301" y="177.404549" style="fill: #0000ff; stroke: #0000ff"/>
     <use xlink:href="#m2a049c4f72" x="322.8324" y="177.404549" style="fill: #0000ff; stroke: #0000ff"/>
     <use xlink:href="#m2a049c4f72" x="336.055499" y="177.404549" style="fill: #0000ff; stroke: #0000ff"/>
     <use xlink:href="#m2a049c4f72" x="349.278598" y="177.404549" style="fill: #0000ff; stroke: #0000ff"/>
     <use xlink:href="#m2a049c4f72" x="362.501698" y="177.404549" style="fill: #0000ff; stroke: #0000ff"/>
     <use xlink:href="#m2a049c4f72" x="375.724797" y="25.755595" style="fill: #0000ff; stroke: #0000ff"/>
     <use xlink:href="#m2a049c4f72" x="388.947896" y="177.404549" style="fill: #0000ff; stroke: #0000ff"/>
     <use xlink:href="#m2a049c4f72" x="402.170995" y="101.580072" style="fill: #0000ff; stroke: #0000ff"/>
     <use xlink:href="#m2a049c4f72" x="415.394094" y="101.580072" style="fill: #0000ff; stroke: #0000ff"/>
     <use xlink:href="#m2a049c4f72" x="428.617193" y="177.404549" style="fill: #0000ff; stroke: #0000ff"/>
     <use xlink:href="#m2a049c4f72" x="441.840292" y="177.404549" style="fill: #0000ff; stroke: #0000ff"/>
     <use xlink:href="#m2a049c4f72" x="455.063391" y="177.404549" style="fill: #0000ff; stroke: #0000ff"/>
     <use xlink:href="#m2a049c4f72" x="468.28649" y="253.229026" style="fill: #0000ff; stroke: #0000ff"/>
     <use xlink:href="#m2a049c4f72" x="481.509589" y="101.580072" style="fill: #0000ff; stroke: #0000ff"/>
     <use xlink:href="#m2a049c4f72" x="494.732688" y="177.404549" style="fill: #0000ff; stroke: #0000ff"/>
     <use xlink:href="#m2a049c4f72" x="507.955787" y="177.404549" style="fill: #0000ff; stroke: #0000ff"/>
     <use xlink:href="#m2a049c4f72" x="521.178886" y="101.580072" style="fill: #0000ff; stroke: #0000ff"/>
     <use xlink:href="#m2a049c4f72" x="534.401985" y="177.404549" style="fill: #0000ff; stroke: #0000ff"/>
     <use xlink:href="#m2a049c4f72" x="547.625084" y="101.580072" style="fill: #0000ff; stroke: #0000ff"/>
     <use xlink:href="#m2a049c4f72" x="560.848183" y="177.404549" style="fill: #0000ff; stroke: #0000ff"/>
     <use xlink:href="#m2a049c4f72" x="574.071282" y="101.580072" style="fill: #0000ff; stroke: #0000ff"/>
     <use xlink:href="#m2a049c4f72" x="587.294381" y="177.404549" style="fill: #0000ff; stroke: #0000ff"/>
     <use xlink:href="#m2a049c4f72" x="600.51748" y="177.404549" style="fill: #0000ff; stroke: #0000ff"/>
     <use xlink:href="#m2a049c4f72" x="613.74058" y="177.404549" style="fill: #0000ff; stroke: #0000ff"/>
     <use xlink:href="#m2a049c4f72" x="626.963679" y="177.404549" style="fill: #0000ff; stroke: #0000ff"/>
     <use xlink:href="#m2a049c4f72" x="640.186778" y="101.580072" style="fill: #0000ff; stroke: #0000ff"/>
     <use xlink:href="#m2a049c4f72" x="653.409877" y="177.404549" style="fill: #0000ff; stroke: #0000ff"/>
     <use xlink:href="#m2a049c4f72" x="666.632976" y="177.404549" style="fill: #0000ff; stroke: #0000ff"/>
     <use xlink:href="#m2a049c4f72" x="679.856075" y="177.404549" style="fill: #0000ff; stroke: #0000ff"/>
     <use xlink:href="#m2a049c4f72" x="693.079174" y="177.404549" style="fill: #0000ff; stroke: #0000ff"/>
     <use xlink:href="#m2a049c4f72" x="706.302273" y="177.404549" style="fill: #0000ff; stroke: #0000ff"/>
     <use xlink:href="#m2a049c4f72" x="719.525372" y="101.580072" style="fill: #0000ff; stroke: #0000ff"/>
     <use xlink:href="#m2a049c4f72" x="732.748471" y="25.755595" style="fill: #0000ff; stroke: #0000ff"/>
     <use xlink:href="#m2a049c4f72" x="745.97157" y="101.580072" style="fill: #0000ff; stroke: #0000ff"/>
     <use xlink:href="#m2a049c4f72" x="759.194669" y="25.755595" style="fill: #0000ff; stroke: #0000ff"/>
     <use xlink:href="#m2a049c4f72" x="772.417768" y="177.404549" style="fill: #0000ff; stroke: #0000ff"/>
     <use xlink:href="#m2a049c4f72" x="785.640867" y="177.404549" style="fill: #0000ff; stroke: #0000ff"/>
     <use xlink:href="#m2a049c4f72" x="798.863966" y="101.580072" style="fill: #0000ff; stroke: #0000ff"/>
     <use xlink:href="#m2a049c4f72" x="812.087065" y="101.580072" style="fill: #0000ff; stroke: #0000ff"/>
    </g>
   </g>
   <g id="patch_3">
    <path d="M 98.700871 264.602697 
L 98.700871 14.381923 
" style="fill: none; stroke: #000000; stroke-width: 0.8; stroke-linejoin: miter; stroke-linecap: square"/>
   </g>
   <g id="patch_4">
    <path d="M 956.88 264.602697 
L 956.88 14.381923 
" style="fill: none; stroke: #000000; stroke-width: 0.8; stroke-linejoin: miter; stroke-linecap: square"/>
   </g>
   <g id="patch_5">
    <path d="M 98.700871 264.602697 
L 956.88 264.602697 
" style="fill: none; stroke: #000000; stroke-width: 0.8; stroke-linejoin: miter; stroke-linecap: square"/>
   </g>
   <g id="patch_6">
    <path d="M 98.700871 14.381923 
L 956.88 14.381923 
" style="fill: none; stroke: #000000; stroke-width: 0.8; stroke-linejoin: miter; stroke-linecap: square"/>
   </g>
  </g>
  <g id="axes_2">
   <g id="patch_7">
    <path d="M 98.700871 548.920256 
L 956.88 548.920256 
L 956.88 298.699482 
L 98.700871 298.699482 
z
" style="fill: #ffffff"/>
   </g>
   <g id="matplotlib.axis_3">
    <g id="xtick_8">
     <g id="line2d_20">
      <path d="M 137.709014 548.920256 
L 137.709014 298.699482 
" clip-path="url(#pf9074439ce)" style="fill: none; stroke: #808080; stroke-width: 0.5; stroke-linecap: square"/>
     </g>
     <g id="line2d_21">
      <g>
       <use xlink:href="#mcdbd72b664" x="137.709014" y="548.920256" style="stroke: #000000; stroke-width: 0.8"/>
      </g>
     </g>
    </g>
    <g id="xtick_9">
     <g id="line2d_22">
      <path d="M 269.940004 548.920256 
L 269.940004 298.699482 
" clip-path="url(#pf9074439ce)" style="fill: none; stroke: #808080; stroke-width: 0.5; stroke-linecap: square"/>
     </g>
     <g id="line2d_23">
      <g>
       <use xlink:href="#mcdbd72b664" x="269.940004" y="548.920256" style="stroke: #000000; stroke-width: 0.8"/>
      </g>
     </g>
    </g>
    <g id="xtick_10">
     <g id="line2d_24">
      <path d="M 402.170995 548.920256 
L 402.170995 298.699482 
" clip-path="url(#pf9074439ce)" style="fill: none; stroke: #808080; stroke-width: 0.5; stroke-linecap: square"/>
     </g>
     <g id="line2d_25">
      <g>
       <use xlink:href="#mcdbd72b664" x="402.170995" y="548.920256" style="stroke: #000000; stroke-width: 0.8"/>
      </g>
     </g>
    </g>
    <g id="xtick_11">
     <g id="line2d_26">
      <path d="M 534.401985 548.920256 
L 534.401985 298.699482 
" clip-path="url(#pf9074439ce)" style="fill: none; stroke: #808080; stroke-width: 0.5; stroke-linecap: square"/>
     </g>
     <g id="line2d_27">
      <g>
       <use xlink:href="#mcdbd72b664" x="534.401985" y="548.920256" style="stroke: #000000; stroke-width: 0.8"/>
      </g>
     </g>
    </g>
    <g id="xtick_12">
     <g id="line2d_28">
      <path d="M 666.632976 548.920256 
L 666.632976 298.699482 
" clip-path="url(#pf9074439ce)" style="fill: none; stroke: #808080; stroke-width: 0.5; stroke-linecap: square"/>
     </g>
     <g id="line2d_29">
      <g>
       <use xlink:href="#mcdbd72b664" x="666.632976" y="548.920256" style="stroke: #000000; stroke-width: 0.8"/>
      </g>
     </g>
    </g>
    <g id="xtick_13">
     <g id="line2d_30">
      <path d="M 798.863966 548.920256 
L 798.863966 298.699482 
" clip-path="url(#pf9074439ce)" style="fill: none; stroke: #808080; stroke-width: 0.5; stroke-linecap: square"/>
     </g>
     <g id="line2d_31">
      <g>
       <use xlink:href="#mcdbd72b664" x="798.863966" y="548.920256" style="stroke: #000000; stroke-width: 0.8"/>
      </g>
     </g>
    </g>
    <g id="xtick_14">
     <g id="line2d_32">
      <path d="M 931.094957 548.920256 
L 931.094957 298.699482 
" clip-path="url(#pf9074439ce)" style="fill: none; stroke: #808080; stroke-width: 0.5; stroke-linecap: square"/>
     </g>
     <g id="line2d_33">
      <g>
       <use xlink:href="#mcdbd72b664" x="931.094957" y="548.920256" style="stroke: #000000; stroke-width: 0.8"/>
      </g>
     </g>
    </g>
   </g>
   <g id="matplotlib.axis_4">
    <g id="ytick_3">
     <g id="line2d_34">
      <path d="M 98.700871 537.546585 
L 956.88 537.546585 
" clip-path="url(#pf9074439ce)" style="fill: none; stroke: #808080; stroke-width: 0.5; stroke-linecap: square"/>
     </g>
     <g id="line2d_35">
      <g>
       <use xlink:href="#m2f8c641aa4" x="98.700871" y="537.546585" style="stroke: #000000; stroke-width: 0.8"/>
      </g>
     </g>
     <g id="text_4">
      <!-- $\mathdefault{0}$ -->
      <g transform="translate(79.364443 546.88656)scale(0.27 -0.27)">
       <use xlink:href="#CMR17-30" transform="scale(0.996264)"/>
      </g>
     </g>
    </g>
    <g id="ytick_4">
     <g id="line2d_36">
      <path d="M 98.700871 423.809869 
L 956.88 423.809869 
" clip-path="url(#pf9074439ce)" style="fill: none; stroke: #808080; stroke-width: 0.5; stroke-linecap: square"/>
     </g>
     <g id="line2d_37">
      <g>
       <use xlink:href="#m2f8c641aa4" x="98.700871" y="423.809869" style="stroke: #000000; stroke-width: 0.8"/>
      </g>
     </g>
     <g id="text_5">
      <!-- $\mathdefault{1}$ -->
      <g transform="translate(79.364443 433.149844)scale(0.27 -0.27)">
       <use xlink:href="#CMR17-31" transform="scale(0.996264)"/>
      </g>
     </g>
    </g>
    <g id="ytick_5">
     <g id="line2d_38">
      <path d="M 98.700871 310.073154 
L 956.88 310.073154 
" clip-path="url(#pf9074439ce)" style="fill: none; stroke: #808080; stroke-width: 0.5; stroke-linecap: square"/>
     </g>
     <g id="line2d_39">
      <g>
       <use xlink:href="#m2f8c641aa4" x="98.700871" y="310.073154" style="stroke: #000000; stroke-width: 0.8"/>
      </g>
     </g>
     <g id="text_6">
      <!-- $\mathdefault{2}$ -->
      <g transform="translate(79.364443 319.413129)scale(0.27 -0.27)">
       <use xlink:href="#CMR17-32" transform="scale(0.996264)"/>
      </g>
     </g>
    </g>
    <g id="text_7">
     <!-- Max. relative difference -->
     <g transform="translate(70.132339 551.113304)rotate(-90)scale(0.27 -0.27)">
      <defs>
       <path id="CMR17-76" d="M 2502 2173 
C 2560 2315 2662 2572 3034 2585 
L 3034 2752 
C 2912 2745 2752 2739 2630 2739 
C 2496 2739 2285 2739 2157 2752 
L 2157 2585 
C 2317 2572 2406 2495 2406 2328 
C 2406 2270 2406 2257 2368 2167 
L 1664 379 
L 902 2308 
C 864 2392 864 2405 864 2431 
C 864 2585 1075 2585 1171 2585 
L 1171 2752 
C 1018 2739 736 2739 576 2739 
C 403 2739 205 2739 64 2752 
L 64 2585 
C 307 2585 442 2585 518 2386 
L 1446 44 
C 1485 -52 1491 -64 1549 -64 
C 1606 -64 1613 -52 1651 44 
L 2502 2173 
z
" transform="scale(0.015625)"/>
      </defs>
      <use xlink:href="#CMR17-4d" transform="scale(0.996264)"/>
      <use xlink:href="#CMR17-61" transform="translate(84.686941 0)scale(0.996264)"/>
      <use xlink:href="#CMR17-78" transform="translate(130.377418 0)scale(0.996264)"/>
      <use xlink:href="#CMR17-2e" transform="translate(178.670334 0)scale(0.996264)"/>
      <use xlink:href="#CMR17-72" transform="translate(244.027052 0)scale(0.996264)"/>
      <use xlink:href="#CMR17-65" transform="translate(279.30782 0)scale(0.996264)"/>
      <use xlink:href="#CMR17-6c" transform="translate(319.793481 0)scale(0.996264)"/>
      <use xlink:href="#CMR17-61" transform="translate(344.664539 0)scale(0.996264)"/>
      <use xlink:href="#CMR17-74" transform="translate(390.355016 0)scale(0.996264)"/>
      <use xlink:href="#CMR17-69" transform="translate(425.635784 0)scale(0.996264)"/>
      <use xlink:href="#CMR17-76" transform="translate(450.506843 0)scale(0.996264)"/>
      <use xlink:href="#CMR17-65" transform="translate(496.197305 0)scale(0.996264)"/>
      <use xlink:href="#CMR17-64" transform="translate(566.758931 0)scale(0.996264)"/>
      <use xlink:href="#CMR17-69" transform="translate(617.654301 0)scale(0.996264)"/>
      <use xlink:href="#CMR17-b" transform="translate(642.52536 0)scale(0.996264)"/>
      <use xlink:href="#CMR17-65" transform="translate(694.870037 0)scale(0.996264)"/>
      <use xlink:href="#CMR17-72" transform="translate(735.355697 0)scale(0.996264)"/>
      <use xlink:href="#CMR17-65" transform="translate(770.636465 0)scale(0.996264)"/>
      <use xlink:href="#CMR17-6e" transform="translate(811.122126 0)scale(0.996264)"/>
      <use xlink:href="#CMR17-63" transform="translate(862.017495 0)scale(0.996264)"/>
      <use xlink:href="#CMR17-65" transform="translate(902.503156 0)scale(0.996264)"/>
     </g>
    </g>
   </g>
   <g id="line2d_40">
    <path d="M 137.709014 537.546585 
L 150.932113 310.075256 
L 164.155212 310.074414 
L 177.378311 310.073154 
L 190.60141 310.073364 
L 203.824509 310.073154 
L 217.047608 310.073154 
L 230.270707 310.073154 
L 243.493806 310.073154 
L 256.716905 310.073572 
L 269.940004 310.073154 
L 283.163103 310.07378 
L 296.386202 310.073154 
L 309.609301 310.073154 
L 322.8324 310.074825 
L 336.055499 310.073154 
L 349.278598 310.073154 
L 362.501698 310.073154 
L 375.724797 310.074201 
L 388.947896 310.073996 
L 402.170995 310.073575 
L 415.394094 310.073154 
L 428.617193 310.073574 
L 441.840292 310.073154 
L 455.063391 310.073575 
L 468.28649 310.073575 
L 481.509589 310.073154 
L 494.732688 310.073154 
L 507.955787 310.073154 
L 521.178886 310.073154 
L 534.401985 310.073154 
L 547.625084 310.073154 
L 560.848183 310.073154 
L 574.071282 310.073154 
L 587.294381 310.073154 
L 600.51748 310.073154 
L 613.74058 310.073154 
L 626.963679 310.073154 
L 640.186778 310.073154 
L 653.409877 310.073154 
L 666.632976 310.073154 
L 679.856075 310.073154 
L 693.079174 310.073154 
L 706.302273 310.073154 
L 719.525372 310.073154 
L 732.748471 310.073154 
L 745.97157 310.073154 
L 759.194669 310.073365 
L 772.417768 310.076847 
L 785.640867 310.502976 
L 798.863966 390.297321 
L 812.087065 537.519025 
L 825.310164 537.546585 
L 838.533263 537.546585 
L 851.756363 537.546585 
L 864.979462 537.546585 
L 878.202561 537.546585 
L 891.42566 537.546585 
L 904.648759 537.546585 
L 917.871858 537.546585 
" clip-path="url(#pf9074439ce)" style="fill: none; stroke: #008000; stroke-width: 3; stroke-linecap: square"/>
    <defs>
     <path id="mfd86941784" d="M 0 4 
C 1.060812 4 2.078319 3.578535 2.828427 2.828427 
C 3.578535 2.078319 4 1.060812 4 0 
C 4 -1.060812 3.578535 -2.078319 2.828427 -2.828427 
C 2.078319 -3.578535 1.060812 -4 0 -4 
C -1.060812 -4 -2.078319 -3.578535 -2.828427 -2.828427 
C -3.578535 -2.078319 -4 -1.060812 -4 0 
C -4 1.060812 -3.578535 2.078319 -2.828427 2.828427 
C -2.078319 3.578535 -1.060812 4 0 4 
z
" style="stroke: #008000"/>
    </defs>
    <g clip-path="url(#pf9074439ce)">
     <use xlink:href="#mfd86941784" x="137.709014" y="537.546585" style="fill: #008000; stroke: #008000"/>
     <use xlink:href="#mfd86941784" x="150.932113" y="310.075256" style="fill: #008000; stroke: #008000"/>
     <use xlink:href="#mfd86941784" x="164.155212" y="310.074414" style="fill: #008000; stroke: #008000"/>
     <use xlink:href="#mfd86941784" x="177.378311" y="310.073154" style="fill: #008000; stroke: #008000"/>
     <use xlink:href="#mfd86941784" x="190.60141" y="310.073364" style="fill: #008000; stroke: #008000"/>
     <use xlink:href="#mfd86941784" x="203.824509" y="310.073154" style="fill: #008000; stroke: #008000"/>
     <use xlink:href="#mfd86941784" x="217.047608" y="310.073154" style="fill: #008000; stroke: #008000"/>
     <use xlink:href="#mfd86941784" x="230.270707" y="310.073154" style="fill: #008000; stroke: #008000"/>
     <use xlink:href="#mfd86941784" x="243.493806" y="310.073154" style="fill: #008000; stroke: #008000"/>
     <use xlink:href="#mfd86941784" x="256.716905" y="310.073572" style="fill: #008000; stroke: #008000"/>
     <use xlink:href="#mfd86941784" x="269.940004" y="310.073154" style="fill: #008000; stroke: #008000"/>
     <use xlink:href="#mfd86941784" x="283.163103" y="310.07378" style="fill: #008000; stroke: #008000"/>
     <use xlink:href="#mfd86941784" x="296.386202" y="310.073154" style="fill: #008000; stroke: #008000"/>
     <use xlink:href="#mfd86941784" x="309.609301" y="310.073154" style="fill: #008000; stroke: #008000"/>
     <use xlink:href="#mfd86941784" x="322.8324" y="310.074825" style="fill: #008000; stroke: #008000"/>
     <use xlink:href="#mfd86941784" x="336.055499" y="310.073154" style="fill: #008000; stroke: #008000"/>
     <use xlink:href="#mfd86941784" x="349.278598" y="310.073154" style="fill: #008000; stroke: #008000"/>
     <use xlink:href="#mfd86941784" x="362.501698" y="310.073154" style="fill: #008000; stroke: #008000"/>
     <use xlink:href="#mfd86941784" x="375.724797" y="310.074201" style="fill: #008000; stroke: #008000"/>
     <use xlink:href="#mfd86941784" x="388.947896" y="310.073996" style="fill: #008000; stroke: #008000"/>
     <use xlink:href="#mfd86941784" x="402.170995" y="310.073575" style="fill: #008000; stroke: #008000"/>
     <use xlink:href="#mfd86941784" x="415.394094" y="310.073154" style="fill: #008000; stroke: #008000"/>
     <use xlink:href="#mfd86941784" x="428.617193" y="310.073574" style="fill: #008000; stroke: #008000"/>
     <use xlink:href="#mfd86941784" x="441.840292" y="310.073154" style="fill: #008000; stroke: #008000"/>
     <use xlink:href="#mfd86941784" x="455.063391" y="310.073575" style="fill: #008000; stroke: #008000"/>
     <use xlink:href="#mfd86941784" x="468.28649" y="310.073575" style="fill: #008000; stroke: #008000"/>
     <use xlink:href="#mfd86941784" x="481.509589" y="310.073154" style="fill: #008000; stroke: #008000"/>
     <use xlink:href="#mfd86941784" x="494.732688" y="310.073154" style="fill: #008000; stroke: #008000"/>
     <use xlink:href="#mfd86941784" x="507.955787" y="310.073154" style="fill: #008000; stroke: #008000"/>
     <use xlink:href="#mfd86941784" x="521.178886" y="310.073154" style="fill: #008000; stroke: #008000"/>
     <use xlink:href="#mfd86941784" x="534.401985" y="310.073154" style="fill: #008000; stroke: #008000"/>
     <use xlink:href="#mfd86941784" x="547.625084" y="310.073154" style="fill: #008000; stroke: #008000"/>
     <use xlink:href="#mfd86941784" x="560.848183" y="310.073154" style="fill: #008000; stroke: #008000"/>
     <use xlink:href="#mfd86941784" x="574.071282" y="310.073154" style="fill: #008000; stroke: #008000"/>
     <use xlink:href="#mfd86941784" x="587.294381" y="310.073154" style="fill: #008000; stroke: #008000"/>
     <use xlink:href="#mfd86941784" x="600.51748" y="310.073154" style="fill: #008000; stroke: #008000"/>
     <use xlink:href="#mfd86941784" x="613.74058" y="310.073154" style="fill: #008000; stroke: #008000"/>
     <use xlink:href="#mfd86941784" x="626.963679" y="310.073154" style="fill: #008000; stroke: #008000"/>
     <use xlink:href="#mfd86941784" x="640.186778" y="310.073154" style="fill: #008000; stroke: #008000"/>
     <use xlink:href="#mfd86941784" x="653.409877" y="310.073154" style="fill: #008000; stroke: #008000"/>
     <use xlink:href="#mfd86941784" x="666.632976" y="310.073154" style="fill: #008000; stroke: #008000"/>
     <use xlink:href="#mfd86941784" x="679.856075" y="310.073154" style="fill: #008000; stroke: #008000"/>
     <use xlink:href="#mfd86941784" x="693.079174" y="310.073154" style="fill: #008000; stroke: #008000"/>
     <use xlink:href="#mfd86941784" x="706.302273" y="310.073154" style="fill: #008000; stroke: #008000"/>
     <use xlink:href="#mfd86941784" x="719.525372" y="310.073154" style="fill: #008000; stroke: #008000"/>
     <use xlink:href="#mfd86941784" x="732.748471" y="310.073154" style="fill: #008000; stroke: #008000"/>
     <use xlink:href="#mfd86941784" x="745.97157" y="310.073154" style="fill: #008000; stroke: #008000"/>
     <use xlink:href="#mfd86941784" x="759.194669" y="310.073365" style="fill: #008000; stroke: #008000"/>
     <use xlink:href="#mfd86941784" x="772.417768" y="310.076847" style="fill: #008000; stroke: #008000"/>
     <use xlink:href="#mfd86941784" x="785.640867" y="310.502976" style="fill: #008000; stroke: #008000"/>
     <use xlink:href="#mfd86941784" x="798.863966" y="390.297321" style="fill: #008000; stroke: #008000"/>
     <use xlink:href="#mfd86941784" x="812.087065" y="537.519025" style="fill: #008000; stroke: #008000"/>
     <use xlink:href="#mfd86941784" x="825.310164" y="537.546585" style="fill: #008000; stroke: #008000"/>
     <use xlink:href="#mfd86941784" x="838.533263" y="537.546585" style="fill: #008000; stroke: #008000"/>
     <use xlink:href="#mfd86941784" x="851.756363" y="537.546585" style="fill: #008000; stroke: #008000"/>
     <use xlink:href="#mfd86941784" x="864.979462" y="537.546585" style="fill: #008000; stroke: #008000"/>
     <use xlink:href="#mfd86941784" x="878.202561" y="537.546585" style="fill: #008000; stroke: #008000"/>
     <use xlink:href="#mfd86941784" x="891.42566" y="537.546585" style="fill: #008000; stroke: #008000"/>
     <use xlink:href="#mfd86941784" x="904.648759" y="537.546585" style="fill: #008000; stroke: #008000"/>
     <use xlink:href="#mfd86941784" x="917.871858" y="537.546585" style="fill: #008000; stroke: #008000"/>
    </g>
   </g>
   <g id="patch_8">
    <path d="M 98.700871 548.920256 
L 98.700871 298.699482 
" style="fill: none; stroke: #000000; stroke-width: 0.8; stroke-linejoin: miter; stroke-linecap: square"/>
   </g>
   <g id="patch_9">
    <path d="M 956.88 548.920256 
L 956.88 298.699482 
" style="fill: none; stroke: #000000; stroke-width: 0.8; stroke-linejoin: miter; stroke-linecap: square"/>
   </g>
   <g id="patch_10">
    <path d="M 98.700871 548.920256 
L 956.88 548.920256 
" style="fill: none; stroke: #000000; stroke-width: 0.8; stroke-linejoin: miter; stroke-linecap: square"/>
   </g>
   <g id="patch_11">
    <path d="M 98.700871 298.699482 
L 956.88 298.699482 
" style="fill: none; stroke: #000000; stroke-width: 0.8; stroke-linejoin: miter; stroke-linecap: square"/>
   </g>
  </g>
  <g id="axes_3">
   <g id="patch_12">
    <path d="M 98.700871 833.237815 
L 956.88 833.237815 
L 956.88 583.017041 
L 98.700871 583.017041 
z
" style="fill: #ffffff"/>
   </g>
   <g id="matplotlib.axis_5">
    <g id="xtick_15">
     <g id="line2d_41">
      <path d="M 137.709014 833.237815 
L 137.709014 583.017041 
" clip-path="url(#p94a7846efb)" style="fill: none; stroke: #808080; stroke-width: 0.5; stroke-linecap: square"/>
     </g>
     <g id="line2d_42">
      <g>
       <use xlink:href="#mcdbd72b664" x="137.709014" y="833.237815" style="stroke: #000000; stroke-width: 0.8"/>
      </g>
     </g>
     <g id="text_8">
      <!-- $\mathdefault{0}$ -->
      <g transform="translate(131.540799 858.917765)scale(0.27 -0.27)">
       <use xlink:href="#CMR17-30" transform="scale(0.996264)"/>
      </g>
     </g>
    </g>
    <g id="xtick_16">
     <g id="line2d_43">
      <path d="M 269.940004 833.237815 
L 269.940004 583.017041 
" clip-path="url(#p94a7846efb)" style="fill: none; stroke: #808080; stroke-width: 0.5; stroke-linecap: square"/>
     </g>
     <g id="line2d_44">
      <g>
       <use xlink:href="#mcdbd72b664" x="269.940004" y="833.237815" style="stroke: #000000; stroke-width: 0.8"/>
      </g>
     </g>
     <g id="text_9">
      <!-- $\mathdefault{10}$ -->
      <g transform="translate(257.603575 858.917765)scale(0.27 -0.27)">
       <use xlink:href="#CMR17-31" transform="scale(0.996264)"/>
       <use xlink:href="#CMR17-30" transform="translate(45.690477 0)scale(0.996264)"/>
      </g>
     </g>
    </g>
    <g id="xtick_17">
     <g id="line2d_45">
      <path d="M 402.170995 833.237815 
L 402.170995 583.017041 
" clip-path="url(#p94a7846efb)" style="fill: none; stroke: #808080; stroke-width: 0.5; stroke-linecap: square"/>
     </g>
     <g id="line2d_46">
      <g>
       <use xlink:href="#mcdbd72b664" x="402.170995" y="833.237815" style="stroke: #000000; stroke-width: 0.8"/>
      </g>
     </g>
     <g id="text_10">
      <!-- $\mathdefault{20}$ -->
      <g transform="translate(389.834566 858.917765)scale(0.27 -0.27)">
       <use xlink:href="#CMR17-32" transform="scale(0.996264)"/>
       <use xlink:href="#CMR17-30" transform="translate(45.690477 0)scale(0.996264)"/>
      </g>
     </g>
    </g>
    <g id="xtick_18">
     <g id="line2d_47">
      <path d="M 534.401985 833.237815 
L 534.401985 583.017041 
" clip-path="url(#p94a7846efb)" style="fill: none; stroke: #808080; stroke-width: 0.5; stroke-linecap: square"/>
     </g>
     <g id="line2d_48">
      <g>
       <use xlink:href="#mcdbd72b664" x="534.401985" y="833.237815" style="stroke: #000000; stroke-width: 0.8"/>
      </g>
     </g>
     <g id="text_11">
      <!-- $\mathdefault{30}$ -->
      <g transform="translate(522.065556 858.917765)scale(0.27 -0.27)">
       <defs>
        <path id="CMR17-33" d="M 1414 2176 
C 1984 2176 2234 1673 2234 1094 
C 2234 322 1824 25 1453 25 
C 1114 25 563 193 390 691 
C 422 678 454 678 486 678 
C 640 678 755 780 755 947 
C 755 1132 614 1216 486 1216 
C 378 1216 211 1164 211 927 
C 211 335 787 -128 1466 -128 
C 2176 -128 2720 432 2720 1087 
C 2720 1718 2208 2176 1600 2246 
C 2086 2347 2554 2776 2554 3353 
C 2554 3856 2048 4224 1472 4224 
C 890 4224 378 3862 378 3347 
C 378 3123 544 3084 627 3084 
C 762 3084 877 3167 877 3334 
C 877 3500 762 3584 627 3584 
C 602 3584 570 3584 544 3571 
C 730 3999 1235 4076 1459 4076 
C 1683 4076 2106 3966 2106 3347 
C 2106 3167 2080 2851 1862 2574 
C 1670 2329 1453 2316 1242 2297 
C 1210 2297 1062 2284 1037 2284 
C 992 2278 966 2272 966 2227 
C 966 2182 973 2176 1101 2176 
L 1414 2176 
z
" transform="scale(0.015625)"/>
       </defs>
       <use xlink:href="#CMR17-33" transform="scale(0.996264)"/>
       <use xlink:href="#CMR17-30" transform="translate(45.690477 0)scale(0.996264)"/>
      </g>
     </g>
    </g>
    <g id="xtick_19">
     <g id="line2d_49">
      <path d="M 666.632976 833.237815 
L 666.632976 583.017041 
" clip-path="url(#p94a7846efb)" style="fill: none; stroke: #808080; stroke-width: 0.5; stroke-linecap: square"/>
     </g>
     <g id="line2d_50">
      <g>
       <use xlink:href="#mcdbd72b664" x="666.632976" y="833.237815" style="stroke: #000000; stroke-width: 0.8"/>
      </g>
     </g>
     <g id="text_12">
      <!-- $\mathdefault{40}$ -->
      <g transform="translate(654.296547 858.917765)scale(0.27 -0.27)">
       <defs>
        <path id="CMR17-34" d="M 2150 4147 
C 2150 4281 2144 4288 2029 4288 
L 128 1254 
L 128 1088 
L 1779 1088 
L 1779 460 
C 1779 230 1766 166 1318 166 
L 1197 166 
L 1197 0 
C 1402 12 1747 12 1965 12 
C 2182 12 2528 12 2733 0 
L 2733 166 
L 2611 166 
C 2163 166 2150 230 2150 460 
L 2150 1088 
L 2803 1088 
L 2803 1254 
L 2150 1254 
L 2150 4147 
z
M 1798 3723 
L 1798 1254 
L 256 1254 
L 1798 3723 
z
" transform="scale(0.015625)"/>
       </defs>
       <use xlink:href="#CMR17-34" transform="scale(0.996264)"/>
       <use xlink:href="#CMR17-30" transform="translate(45.690477 0)scale(0.996264)"/>
      </g>
     </g>
    </g>
    <g id="xtick_20">
     <g id="line2d_51">
      <path d="M 798.863966 833.237815 
L 798.863966 583.017041 
" clip-path="url(#p94a7846efb)" style="fill: none; stroke: #808080; stroke-width: 0.5; stroke-linecap: square"/>
     </g>
     <g id="line2d_52">
      <g>
       <use xlink:href="#mcdbd72b664" x="798.863966" y="833.237815" style="stroke: #000000; stroke-width: 0.8"/>
      </g>
     </g>
     <g id="text_13">
      <!-- $\mathdefault{50}$ -->
      <g transform="translate(786.527537 858.917765)scale(0.27 -0.27)">
       <defs>
        <path id="CMR17-35" d="M 730 3750 
C 794 3724 1056 3641 1325 3641 
C 1920 3641 2246 3961 2432 4140 
C 2432 4191 2432 4224 2394 4224 
C 2387 4224 2374 4224 2323 4198 
C 2099 4102 1837 4032 1517 4032 
C 1325 4032 1037 4055 723 4191 
C 653 4224 640 4224 634 4224 
C 602 4224 595 4217 595 4090 
L 595 2231 
C 595 2113 595 2080 659 2080 
C 691 2080 704 2093 736 2139 
C 941 2435 1222 2560 1542 2560 
C 1766 2560 2246 2415 2246 1293 
C 2246 1087 2246 716 2054 422 
C 1894 159 1645 25 1370 25 
C 947 25 518 319 403 812 
C 429 806 480 793 506 793 
C 589 793 749 838 749 1036 
C 749 1209 627 1280 506 1280 
C 358 1280 262 1190 262 1011 
C 262 454 704 -128 1382 -128 
C 2042 -128 2669 441 2669 1267 
C 2669 2054 2170 2662 1549 2662 
C 1222 2662 947 2540 730 2304 
L 730 3750 
z
" transform="scale(0.015625)"/>
       </defs>
       <use xlink:href="#CMR17-35" transform="scale(0.996264)"/>
       <use xlink:href="#CMR17-30" transform="translate(45.690477 0)scale(0.996264)"/>
      </g>
     </g>
    </g>
    <g id="xtick_21">
     <g id="line2d_53">
      <path d="M 931.094957 833.237815 
L 931.094957 583.017041 
" clip-path="url(#p94a7846efb)" style="fill: none; stroke: #808080; stroke-width: 0.5; stroke-linecap: square"/>
     </g>
     <g id="line2d_54">
      <g>
       <use xlink:href="#mcdbd72b664" x="931.094957" y="833.237815" style="stroke: #000000; stroke-width: 0.8"/>
      </g>
     </g>
     <g id="text_14">
      <!-- $\mathdefault{60}$ -->
      <g transform="translate(918.758528 858.917765)scale(0.27 -0.27)">
       <defs>
        <path id="CMR17-36" d="M 678 2198 
C 678 3712 1395 4076 1811 4076 
C 1946 4076 2272 4049 2400 3782 
C 2298 3782 2106 3782 2106 3558 
C 2106 3385 2246 3328 2336 3328 
C 2394 3328 2566 3353 2566 3571 
C 2566 3987 2246 4224 1805 4224 
C 1043 4224 243 3411 243 2011 
C 243 257 966 -128 1478 -128 
C 2099 -128 2688 431 2688 1295 
C 2688 2101 2170 2688 1517 2688 
C 1126 2688 838 2430 678 1979 
L 678 2198 
z
M 1478 25 
C 691 25 691 1212 691 1450 
C 691 1914 909 2585 1504 2585 
C 1613 2585 1926 2585 2138 2140 
C 2253 1889 2253 1624 2253 1302 
C 2253 954 2253 696 2118 438 
C 1978 173 1773 25 1478 25 
z
" transform="scale(0.015625)"/>
       </defs>
       <use xlink:href="#CMR17-36" transform="scale(0.996264)"/>
       <use xlink:href="#CMR17-30" transform="translate(45.690477 0)scale(0.996264)"/>
      </g>
     </g>
    </g>
    <g id="text_15">
     <!-- picture times -->
     <g transform="translate(457.37055 886.829819)scale(0.27 -0.27)">
      <defs>
       <path id="CMR17-70" d="M 1408 -1114 
C 998 -1114 973 -1088 973 -834 
L 973 380 
C 1158 109 1427 -64 1766 -64 
C 2406 -64 3053 503 3053 1382 
C 3053 2196 2496 2816 1837 2816 
C 1453 2816 1139 2603 960 2345 
L 960 2816 
L 198 2745 
L 198 2577 
C 576 2577 634 2539 634 2228 
L 634 -834 
C 634 -1081 608 -1114 198 -1114 
L 198 -1280 
C 352 -1268 634 -1268 800 -1268 
C 966 -1268 1254 -1268 1408 -1280 
L 1408 -1114 
z
M 973 2015 
C 973 2106 973 2241 1222 2481 
C 1254 2506 1472 2700 1792 2700 
C 2259 2700 2643 2112 2643 1376 
C 2643 639 2234 38 1728 38 
C 1498 38 1248 148 1056 451 
C 973 594 973 632 973 736 
L 973 2015 
z
" transform="scale(0.015625)"/>
       <path id="CMR17-6d" d="M 4326 1954 
C 4326 2276 4269 2816 3507 2816 
C 3072 2816 2771 2520 2656 2173 
L 2650 2173 
C 2573 2700 2195 2816 1837 2816 
C 1331 2816 1069 2424 973 2166 
L 966 2166 
L 966 2816 
L 211 2745 
L 211 2578 
C 589 2578 646 2540 646 2231 
L 646 443 
C 646 198 621 166 211 166 
L 211 0 
C 365 12 646 12 813 12 
C 979 12 1267 12 1421 0 
L 1421 166 
C 1011 166 986 192 986 443 
L 986 1678 
C 986 2269 1344 2713 1792 2713 
C 2266 2713 2317 2289 2317 1980 
L 2317 443 
C 2317 198 2291 166 1882 166 
L 1882 0 
C 2035 12 2317 12 2483 12 
C 2650 12 2938 12 3091 0 
L 3091 166 
C 2682 166 2656 192 2656 443 
L 2656 1678 
C 2656 2269 3014 2713 3462 2713 
C 3936 2713 3987 2289 3987 1980 
L 3987 443 
C 3987 198 3962 166 3552 166 
L 3552 0 
C 3706 12 3987 12 4154 12 
C 4320 12 4608 12 4762 0 
L 4762 166 
C 4352 166 4326 192 4326 443 
L 4326 1954 
z
" transform="scale(0.015625)"/>
      </defs>
      <use xlink:href="#CMR17-70" transform="scale(0.996264)"/>
      <use xlink:href="#CMR17-69" transform="translate(50.89537 0)scale(0.996264)"/>
      <use xlink:href="#CMR17-63" transform="translate(75.766428 0)scale(0.996264)"/>
      <use xlink:href="#CMR17-74" transform="translate(116.252089 0)scale(0.996264)"/>
      <use xlink:href="#CMR17-75" transform="translate(151.532857 0)scale(0.996264)"/>
      <use xlink:href="#CMR17-72" transform="translate(202.428226 0)scale(0.996264)"/>
      <use xlink:href="#CMR17-65" transform="translate(237.708994 0)scale(0.996264)"/>
      <use xlink:href="#CMR17-74" transform="translate(308.270621 0)scale(0.996264)"/>
      <use xlink:href="#CMR17-69" transform="translate(343.551389 0)scale(0.996264)"/>
      <use xlink:href="#CMR17-6d" transform="translate(368.422447 0)scale(0.996264)"/>
      <use xlink:href="#CMR17-65" transform="translate(445.342037 0)scale(0.996264)"/>
      <use xlink:href="#CMR17-73" transform="translate(485.827698 0)scale(0.996264)"/>
     </g>
    </g>
   </g>
   <g id="matplotlib.axis_6">
    <g id="ytick_6">
     <g id="line2d_55">
      <path d="M 98.700871 821.864144 
L 956.88 821.864144 
" clip-path="url(#p94a7846efb)" style="fill: none; stroke: #808080; stroke-width: 0.5; stroke-linecap: square"/>
     </g>
     <g id="line2d_56">
      <g>
       <use xlink:href="#m2f8c641aa4" x="98.700871" y="821.864144" style="stroke: #000000; stroke-width: 0.8"/>
      </g>
     </g>
     <g id="text_16">
      <!-- $\mathdefault{0.0}$ -->
      <g transform="translate(59.711776 831.204119)scale(0.27 -0.27)">
       <defs>
        <path id="CMMI12-3a" d="M 1178 307 
C 1178 492 1024 620 870 620 
C 685 620 557 467 557 313 
C 557 128 710 0 864 0 
C 1050 0 1178 153 1178 307 
z
" transform="scale(0.015625)"/>
       </defs>
       <use xlink:href="#CMR17-30" transform="scale(0.996264)"/>
       <use xlink:href="#CMMI12-3a" transform="translate(45.690477 0)scale(0.996264)"/>
       <use xlink:href="#CMR17-30" transform="translate(72.787654 0)scale(0.996264)"/>
      </g>
     </g>
    </g>
    <g id="ytick_7">
     <g id="line2d_57">
      <path d="M 98.700871 757.398238 
L 956.88 757.398238 
" clip-path="url(#p94a7846efb)" style="fill: none; stroke: #808080; stroke-width: 0.5; stroke-linecap: square"/>
     </g>
     <g id="line2d_58">
      <g>
       <use xlink:href="#m2f8c641aa4" x="98.700871" y="757.398238" style="stroke: #000000; stroke-width: 0.8"/>
      </g>
     </g>
     <g id="text_17">
      <!-- $\mathdefault{2.5}$ -->
      <g transform="translate(59.711776 766.738214)scale(0.27 -0.27)">
       <use xlink:href="#CMR17-32" transform="scale(0.996264)"/>
       <use xlink:href="#CMMI12-3a" transform="translate(45.690477 0)scale(0.996264)"/>
       <use xlink:href="#CMR17-35" transform="translate(72.787654 0)scale(0.996264)"/>
      </g>
     </g>
    </g>
    <g id="ytick_8">
     <g id="line2d_59">
      <path d="M 98.700871 692.932333 
L 956.88 692.932333 
" clip-path="url(#p94a7846efb)" style="fill: none; stroke: #808080; stroke-width: 0.5; stroke-linecap: square"/>
     </g>
     <g id="line2d_60">
      <g>
       <use xlink:href="#m2f8c641aa4" x="98.700871" y="692.932333" style="stroke: #000000; stroke-width: 0.8"/>
      </g>
     </g>
     <g id="text_18">
      <!-- $\mathdefault{5.0}$ -->
      <g transform="translate(59.711776 702.272308)scale(0.27 -0.27)">
       <use xlink:href="#CMR17-35" transform="scale(0.996264)"/>
       <use xlink:href="#CMMI12-3a" transform="translate(45.690477 0)scale(0.996264)"/>
       <use xlink:href="#CMR17-30" transform="translate(72.787654 0)scale(0.996264)"/>
      </g>
     </g>
    </g>
    <g id="ytick_9">
     <g id="line2d_61">
      <path d="M 98.700871 628.466428 
L 956.88 628.466428 
" clip-path="url(#p94a7846efb)" style="fill: none; stroke: #808080; stroke-width: 0.5; stroke-linecap: square"/>
     </g>
     <g id="line2d_62">
      <g>
       <use xlink:href="#m2f8c641aa4" x="98.700871" y="628.466428" style="stroke: #000000; stroke-width: 0.8"/>
      </g>
     </g>
     <g id="text_19">
      <!-- $\mathdefault{7.5}$ -->
      <g transform="translate(59.711776 637.806403)scale(0.27 -0.27)">
       <defs>
        <path id="CMR17-37" d="M 2886 3955 
L 2886 4096 
L 1382 4096 
C 634 4096 621 4166 595 4288 
L 480 4288 
L 294 3104 
L 410 3104 
C 429 3226 474 3552 550 3673 
C 589 3724 1062 3724 1171 3724 
L 2579 3724 
L 1869 2670 
C 1395 1961 1069 1003 1069 166 
C 1069 89 1069 -128 1299 -128 
C 1530 -128 1530 89 1530 172 
L 1530 466 
C 1530 1514 1709 2204 2003 2644 
L 2886 3955 
z
" transform="scale(0.015625)"/>
       </defs>
       <use xlink:href="#CMR17-37" transform="scale(0.996264)"/>
       <use xlink:href="#CMMI12-3a" transform="translate(45.690477 0)scale(0.996264)"/>
       <use xlink:href="#CMR17-35" transform="translate(72.787654 0)scale(0.996264)"/>
      </g>
     </g>
    </g>
    <g id="text_20">
     <!-- \% of divergent elements -->
     <g transform="translate(50.479672 836.364845)rotate(-90)scale(0.27 -0.27)">
      <defs>
       <path id="CMR17-25" d="M 4640 928 
C 4640 1670 4275 2214 3846 2214 
C 3411 2214 2970 1708 2970 928 
C 2970 147 3405 -359 3846 -359 
C 4275 -359 4640 179 4640 928 
z
M 3853 -256 
C 3686 -256 3270 -103 3270 928 
C 3270 1964 3686 2112 3853 2112 
C 4205 2112 4525 1606 4525 928 
C 4525 249 4205 -256 3853 -256 
z
M 4083 4572 
C 4128 4644 4134 4651 4134 4684 
C 4134 4761 4077 4800 4026 4800 
C 3962 4800 3936 4755 3891 4703 
C 3520 4155 3008 4096 2746 4096 
C 2106 4096 1715 4479 1594 4598 
C 1510 4677 1389 4800 1171 4800 
C 736 4800 294 4281 294 3496 
C 294 2718 730 2214 1171 2214 
C 1600 2214 1965 2750 1965 3496 
C 1965 3936 1830 4241 1811 4281 
C 2202 4025 2586 3993 2752 3993 
C 3162 3993 3456 4148 3616 4261 
L 3622 4254 
L 858 -122 
C 800 -212 800 -224 800 -244 
C 800 -314 858 -359 915 -359 
C 973 -359 992 -327 1037 -256 
L 4083 4572 
z
M 1178 2316 
C 1011 2316 595 2469 595 3496 
C 595 4545 1011 4697 1178 4697 
C 1530 4697 1850 4175 1850 3496 
C 1850 2820 1530 2316 1178 2316 
z
" transform="scale(0.015625)"/>
       <path id="CMR17-66" d="M 979 2585 
L 1709 2585 
L 1709 2752 
L 966 2752 
L 966 3539 
C 966 4076 1235 4377 1510 4377 
C 1594 4377 1690 4363 1754 4339 
C 1702 4326 1568 4281 1568 4121 
C 1568 3955 1696 3904 1786 3904 
C 1875 3904 2003 3955 2003 4121 
C 2003 4353 1773 4480 1517 4480 
C 1152 4480 653 4211 653 3526 
L 653 2752 
L 141 2752 
L 141 2585 
L 653 2585 
L 653 441 
C 653 198 627 166 218 166 
L 218 0 
C 371 12 666 12 832 12 
C 1018 12 1344 12 1517 0 
L 1517 166 
C 1056 166 979 166 979 454 
L 979 2585 
z
" transform="scale(0.015625)"/>
       <path id="CMR17-67" d="M 710 1165 
C 832 1068 1043 960 1299 960 
C 1805 960 2240 1359 2240 1895 
C 2240 2063 2189 2321 1997 2521 
C 2176 2713 2438 2777 2586 2777 
C 2611 2777 2650 2777 2682 2758 
C 2656 2751 2598 2726 2598 2623 
C 2598 2540 2656 2483 2739 2483 
C 2835 2483 2886 2547 2886 2630 
C 2886 2751 2790 2880 2586 2880 
C 2330 2880 2106 2758 1926 2591 
C 1734 2764 1504 2828 1299 2828 
C 794 2828 358 2431 358 1895 
C 358 1527 570 1294 634 1230 
C 442 1004 442 742 442 710 
C 442 544 506 300 723 166 
C 390 82 128 -184 128 -517 
C 128 -996 736 -1344 1466 -1344 
C 2170 -1344 2803 -1009 2803 -510 
C 2803 384 1856 384 1363 384 
C 1216 384 954 384 922 390 
C 723 422 589 601 589 825 
C 589 883 589 1024 710 1165 
z
M 1299 1068 
C 736 1068 736 1766 736 1895 
C 736 2024 736 2719 1299 2719 
C 1862 2719 1862 2024 1862 1895 
C 1862 1766 1862 1068 1299 1068 
z
M 1466 -1236 
C 826 -1236 384 -883 384 -517 
C 384 -311 493 -118 634 -11 
C 794 102 858 102 1293 102 
C 1818 102 2547 102 2547 -517 
C 2547 -883 2106 -1236 1466 -1236 
z
" transform="scale(0.015625)"/>
      </defs>
      <use xlink:href="#CMR17-25" transform="scale(0.996264)"/>
      <use xlink:href="#CMR17-6f" transform="translate(106.995556 0)scale(0.996264)"/>
      <use xlink:href="#CMR17-66" transform="translate(152.686033 0)scale(0.996264)"/>
      <use xlink:href="#CMR17-64" transform="translate(210.235512 0)scale(0.996264)"/>
      <use xlink:href="#CMR17-69" transform="translate(261.130882 0)scale(0.996264)"/>
      <use xlink:href="#CMR17-76" transform="translate(286.00194 0)scale(0.996264)"/>
      <use xlink:href="#CMR17-65" transform="translate(331.692402 0)scale(0.996264)"/>
      <use xlink:href="#CMR17-72" transform="translate(372.178063 0)scale(0.996264)"/>
      <use xlink:href="#CMR17-67" transform="translate(407.458831 0)scale(0.996264)"/>
      <use xlink:href="#CMR17-65" transform="translate(453.149308 0)scale(0.996264)"/>
      <use xlink:href="#CMR17-6e" transform="translate(493.634968 0)scale(0.996264)"/>
      <use xlink:href="#CMR17-74" transform="translate(541.927884 0)scale(0.996264)"/>
      <use xlink:href="#CMR17-65" transform="translate(607.284618 0)scale(0.996264)"/>
      <use xlink:href="#CMR17-6c" transform="translate(647.770279 0)scale(0.996264)"/>
      <use xlink:href="#CMR17-65" transform="translate(672.641337 0)scale(0.996264)"/>
      <use xlink:href="#CMR17-6d" transform="translate(713.126998 0)scale(0.996264)"/>
      <use xlink:href="#CMR17-65" transform="translate(790.046587 0)scale(0.996264)"/>
      <use xlink:href="#CMR17-6e" transform="translate(830.532248 0)scale(0.996264)"/>
      <use xlink:href="#CMR17-74" transform="translate(878.825164 0)scale(0.996264)"/>
      <use xlink:href="#CMR17-73" transform="translate(914.105931 0)scale(0.996264)"/>
     </g>
    </g>
   </g>
   <g id="line2d_63">
    <path d="M 137.709014 821.864144 
L 150.932113 667.009458 
L 164.155212 644.945649 
L 177.378311 632.218101 
L 190.60141 622.336321 
L 203.824509 614.748844 
L 217.047608 608.282878 
L 230.270707 603.927641 
L 243.493806 600.407777 
L 256.716905 597.82362 
L 269.940004 595.953693 
L 283.163103 594.390713 
L 296.386202 594.772725 
L 309.609301 595.874912 
L 322.8324 596.451646 
L 336.055499 598.548254 
L 349.278598 600.771209 
L 362.501698 603.089295 
L 375.724797 605.614738 
L 388.947896 607.420006 
L 402.170995 610.186993 
L 415.394094 613.339709 
L 428.617193 617.104834 
L 441.840292 621.077315 
L 455.063391 625.11297 
L 468.28649 628.687089 
L 481.509589 631.988447 
L 494.732688 636.543609 
L 507.955787 641.982453 
L 521.178886 649.897687 
L 534.401985 658.430533 
L 547.625084 667.815102 
L 560.848183 677.798703 
L 574.071282 691.020488 
L 587.294381 706.532861 
L 600.51748 719.919641 
L 613.74058 730.451733 
L 626.963679 738.693982 
L 640.186778 746.666444 
L 653.409877 754.474656 
L 666.632976 760.842517 
L 679.856075 766.977753 
L 693.079174 773.600537 
L 706.302273 779.90374 
L 719.525372 785.517239 
L 732.748471 790.797034 
L 745.97157 796.785857 
L 759.194669 803.131422 
L 772.417768 809.210174 
L 785.640867 815.038462 
L 798.863966 819.731861 
L 812.087065 821.681313 
L 825.310164 821.864144 
L 838.533263 821.864144 
L 851.756363 821.864144 
L 864.979462 821.864144 
L 878.202561 821.864144 
L 891.42566 821.864144 
L 904.648759 821.864144 
L 917.871858 821.864144 
" clip-path="url(#p94a7846efb)" style="fill: none; stroke: #ff0000; stroke-width: 3; stroke-linecap: square"/>
    <defs>
     <path id="m9ddb38b755" d="M -4 4 
L 4 4 
L 4 -4 
L -4 -4 
z
" style="stroke: #ff0000; stroke-linejoin: miter"/>
    </defs>
    <g clip-path="url(#p94a7846efb)">
     <use xlink:href="#m9ddb38b755" x="137.709014" y="821.864144" style="fill: #ff0000; stroke: #ff0000; stroke-linejoin: miter"/>
     <use xlink:href="#m9ddb38b755" x="150.932113" y="667.009458" style="fill: #ff0000; stroke: #ff0000; stroke-linejoin: miter"/>
     <use xlink:href="#m9ddb38b755" x="164.155212" y="644.945649" style="fill: #ff0000; stroke: #ff0000; stroke-linejoin: miter"/>
     <use xlink:href="#m9ddb38b755" x="177.378311" y="632.218101" style="fill: #ff0000; stroke: #ff0000; stroke-linejoin: miter"/>
     <use xlink:href="#m9ddb38b755" x="190.60141" y="622.336321" style="fill: #ff0000; stroke: #ff0000; stroke-linejoin: miter"/>
     <use xlink:href="#m9ddb38b755" x="203.824509" y="614.748844" style="fill: #ff0000; stroke: #ff0000; stroke-linejoin: miter"/>
     <use xlink:href="#m9ddb38b755" x="217.047608" y="608.282878" style="fill: #ff0000; stroke: #ff0000; stroke-linejoin: miter"/>
     <use xlink:href="#m9ddb38b755" x="230.270707" y="603.927641" style="fill: #ff0000; stroke: #ff0000; stroke-linejoin: miter"/>
     <use xlink:href="#m9ddb38b755" x="243.493806" y="600.407777" style="fill: #ff0000; stroke: #ff0000; stroke-linejoin: miter"/>
     <use xlink:href="#m9ddb38b755" x="256.716905" y="597.82362" style="fill: #ff0000; stroke: #ff0000; stroke-linejoin: miter"/>
     <use xlink:href="#m9ddb38b755" x="269.940004" y="595.953693" style="fill: #ff0000; stroke: #ff0000; stroke-linejoin: miter"/>
     <use xlink:href="#m9ddb38b755" x="283.163103" y="594.390713" style="fill: #ff0000; stroke: #ff0000; stroke-linejoin: miter"/>
     <use xlink:href="#m9ddb38b755" x="296.386202" y="594.772725" style="fill: #ff0000; stroke: #ff0000; stroke-linejoin: miter"/>
     <use xlink:href="#m9ddb38b755" x="309.609301" y="595.874912" style="fill: #ff0000; stroke: #ff0000; stroke-linejoin: miter"/>
     <use xlink:href="#m9ddb38b755" x="322.8324" y="596.451646" style="fill: #ff0000; stroke: #ff0000; stroke-linejoin: miter"/>
     <use xlink:href="#m9ddb38b755" x="336.055499" y="598.548254" style="fill: #ff0000; stroke: #ff0000; stroke-linejoin: miter"/>
     <use xlink:href="#m9ddb38b755" x="349.278598" y="600.771209" style="fill: #ff0000; stroke: #ff0000; stroke-linejoin: miter"/>
     <use xlink:href="#m9ddb38b755" x="362.501698" y="603.089295" style="fill: #ff0000; stroke: #ff0000; stroke-linejoin: miter"/>
     <use xlink:href="#m9ddb38b755" x="375.724797" y="605.614738" style="fill: #ff0000; stroke: #ff0000; stroke-linejoin: miter"/>
     <use xlink:href="#m9ddb38b755" x="388.947896" y="607.420006" style="fill: #ff0000; stroke: #ff0000; stroke-linejoin: miter"/>
     <use xlink:href="#m9ddb38b755" x="402.170995" y="610.186993" style="fill: #ff0000; stroke: #ff0000; stroke-linejoin: miter"/>
     <use xlink:href="#m9ddb38b755" x="415.394094" y="613.339709" style="fill: #ff0000; stroke: #ff0000; stroke-linejoin: miter"/>
     <use xlink:href="#m9ddb38b755" x="428.617193" y="617.104834" style="fill: #ff0000; stroke: #ff0000; stroke-linejoin: miter"/>
     <use xlink:href="#m9ddb38b755" x="441.840292" y="621.077315" style="fill: #ff0000; stroke: #ff0000; stroke-linejoin: miter"/>
     <use xlink:href="#m9ddb38b755" x="455.063391" y="625.11297" style="fill: #ff0000; stroke: #ff0000; stroke-linejoin: miter"/>
     <use xlink:href="#m9ddb38b755" x="468.28649" y="628.687089" style="fill: #ff0000; stroke: #ff0000; stroke-linejoin: miter"/>
     <use xlink:href="#m9ddb38b755" x="481.509589" y="631.988447" style="fill: #ff0000; stroke: #ff0000; stroke-linejoin: miter"/>
     <use xlink:href="#m9ddb38b755" x="494.732688" y="636.543609" style="fill: #ff0000; stroke: #ff0000; stroke-linejoin: miter"/>
     <use xlink:href="#m9ddb38b755" x="507.955787" y="641.982453" style="fill: #ff0000; stroke: #ff0000; stroke-linejoin: miter"/>
     <use xlink:href="#m9ddb38b755" x="521.178886" y="649.897687" style="fill: #ff0000; stroke: #ff0000; stroke-linejoin: miter"/>
     <use xlink:href="#m9ddb38b755" x="534.401985" y="658.430533" style="fill: #ff0000; stroke: #ff0000; stroke-linejoin: miter"/>
     <use xlink:href="#m9ddb38b755" x="547.625084" y="667.815102" style="fill: #ff0000; stroke: #ff0000; stroke-linejoin: miter"/>
     <use xlink:href="#m9ddb38b755" x="560.848183" y="677.798703" style="fill: #ff0000; stroke: #ff0000; stroke-linejoin: miter"/>
     <use xlink:href="#m9ddb38b755" x="574.071282" y="691.020488" style="fill: #ff0000; stroke: #ff0000; stroke-linejoin: miter"/>
     <use xlink:href="#m9ddb38b755" x="587.294381" y="706.532861" style="fill: #ff0000; stroke: #ff0000; stroke-linejoin: miter"/>
     <use xlink:href="#m9ddb38b755" x="600.51748" y="719.919641" style="fill: #ff0000; stroke: #ff0000; stroke-linejoin: miter"/>
     <use xlink:href="#m9ddb38b755" x="613.74058" y="730.451733" style="fill: #ff0000; stroke: #ff0000; stroke-linejoin: miter"/>
     <use xlink:href="#m9ddb38b755" x="626.963679" y="738.693982" style="fill: #ff0000; stroke: #ff0000; stroke-linejoin: miter"/>
     <use xlink:href="#m9ddb38b755" x="640.186778" y="746.666444" style="fill: #ff0000; stroke: #ff0000; stroke-linejoin: miter"/>
     <use xlink:href="#m9ddb38b755" x="653.409877" y="754.474656" style="fill: #ff0000; stroke: #ff0000; stroke-linejoin: miter"/>
     <use xlink:href="#m9ddb38b755" x="666.632976" y="760.842517" style="fill: #ff0000; stroke: #ff0000; stroke-linejoin: miter"/>
     <use xlink:href="#m9ddb38b755" x="679.856075" y="766.977753" style="fill: #ff0000; stroke: #ff0000; stroke-linejoin: miter"/>
     <use xlink:href="#m9ddb38b755" x="693.079174" y="773.600537" style="fill: #ff0000; stroke: #ff0000; stroke-linejoin: miter"/>
     <use xlink:href="#m9ddb38b755" x="706.302273" y="779.90374" style="fill: #ff0000; stroke: #ff0000; stroke-linejoin: miter"/>
     <use xlink:href="#m9ddb38b755" x="719.525372" y="785.517239" style="fill: #ff0000; stroke: #ff0000; stroke-linejoin: miter"/>
     <use xlink:href="#m9ddb38b755" x="732.748471" y="790.797034" style="fill: #ff0000; stroke: #ff0000; stroke-linejoin: miter"/>
     <use xlink:href="#m9ddb38b755" x="745.97157" y="796.785857" style="fill: #ff0000; stroke: #ff0000; stroke-linejoin: miter"/>
     <use xlink:href="#m9ddb38b755" x="759.194669" y="803.131422" style="fill: #ff0000; stroke: #ff0000; stroke-linejoin: miter"/>
     <use xlink:href="#m9ddb38b755" x="772.417768" y="809.210174" style="fill: #ff0000; stroke: #ff0000; stroke-linejoin: miter"/>
     <use xlink:href="#m9ddb38b755" x="785.640867" y="815.038462" style="fill: #ff0000; stroke: #ff0000; stroke-linejoin: miter"/>
     <use xlink:href="#m9ddb38b755" x="798.863966" y="819.731861" style="fill: #ff0000; stroke: #ff0000; stroke-linejoin: miter"/>
     <use xlink:href="#m9ddb38b755" x="812.087065" y="821.681313" style="fill: #ff0000; stroke: #ff0000; stroke-linejoin: miter"/>
     <use xlink:href="#m9ddb38b755" x="825.310164" y="821.864144" style="fill: #ff0000; stroke: #ff0000; stroke-linejoin: miter"/>
     <use xlink:href="#m9ddb38b755" x="838.533263" y="821.864144" style="fill: #ff0000; stroke: #ff0000; stroke-linejoin: miter"/>
     <use xlink:href="#m9ddb38b755" x="851.756363" y="821.864144" style="fill: #ff0000; stroke: #ff0000; stroke-linejoin: miter"/>
     <use xlink:href="#m9ddb38b755" x="864.979462" y="821.864144" style="fill: #ff0000; stroke: #ff0000; stroke-linejoin: miter"/>
     <use xlink:href="#m9ddb38b755" x="878.202561" y="821.864144" style="fill: #ff0000; stroke: #ff0000; stroke-linejoin: miter"/>
     <use xlink:href="#m9ddb38b755" x="891.42566" y="821.864144" style="fill: #ff0000; stroke: #ff0000; stroke-linejoin: miter"/>
     <use xlink:href="#m9ddb38b755" x="904.648759" y="821.864144" style="fill: #ff0000; stroke: #ff0000; stroke-linejoin: miter"/>
     <use xlink:href="#m9ddb38b755" x="917.871858" y="821.864144" style="fill: #ff0000; stroke: #ff0000; stroke-linejoin: miter"/>
    </g>
   </g>
   <g id="patch_13">
    <path d="M 98.700871 833.237815 
L 98.700871 583.017041 
" style="fill: none; stroke: #000000; stroke-width: 0.8; stroke-linejoin: miter; stroke-linecap: square"/>
   </g>
   <g id="patch_14">
    <path d="M 956.88 833.237815 
L 956.88 583.017041 
" style="fill: none; stroke: #000000; stroke-width: 0.8; stroke-linejoin: miter; stroke-linecap: square"/>
   </g>
   <g id="patch_15">
    <path d="M 98.700871 833.237815 
L 956.88 833.237815 
" style="fill: none; stroke: #000000; stroke-width: 0.8; stroke-linejoin: miter; stroke-linecap: square"/>
   </g>
   <g id="patch_16">
    <path d="M 98.700871 583.017041 
L 956.88 583.017041 
" style="fill: none; stroke: #000000; stroke-width: 0.8; stroke-linejoin: miter; stroke-linecap: square"/>
   </g>
  </g>
 </g>
 <defs>
  <clipPath id="pa6c7ba342c">
   <rect x="98.700871" y="14.381923" width="858.179129" height="250.220774"/>
  </clipPath>
  <clipPath id="pf9074439ce">
   <rect x="98.700871" y="298.699482" width="858.179129" height="250.220774"/>
  </clipPath>
  <clipPath id="p94a7846efb">
   <rect x="98.700871" y="583.017041" width="858.179129" height="250.220774"/>
  </clipPath>
 </defs>
</svg>
