<?xml version="1.0" encoding="UTF-8" standalone="no"?>
<!DOCTYPE svg PUBLIC "-//W3C//DTD SVG 1.1//EN"
 "http://www.w3.org/Graphics/SVG/1.1/DTD/svg11.dtd">
<!-- Generated by graphviz version 2.43.0 (0)
 -->
<!-- Title: %3 Pages: 1 -->
<svg width="788pt" height="509pt"
 viewBox="0.00 0.00 788.00 509.00" xmlns="http://www.w3.org/2000/svg" xmlns:xlink="http://www.w3.org/1999/xlink">
<g id="graph0" class="graph" transform="scale(1 1) rotate(0) translate(4 505)">
<title>%3</title>
<polygon fill="white" stroke="transparent" points="-4,4 -4,-505 784,-505 784,4 -4,4"/>
<!-- 1 -->
<g id="node1" class="node">
<title>1</title>
<polygon fill="#0d0d73" stroke="#0d0d73" points="578.5,-501 528.5,-501 528.5,-460 578.5,-460 578.5,-501"/>
<text text-anchor="middle" x="553.5" y="-489" font-family="Arial" font-size="10.00" fill="#ffffff">main</text>
<text text-anchor="middle" x="553.5" y="-478" font-family="Arial" font-size="10.00" fill="#ffffff">96.70%</text>
<text text-anchor="middle" x="553.5" y="-467" font-family="Arial" font-size="10.00" fill="#ffffff">(0.00%)</text>
</g>
<!-- 2 -->
<g id="node2" class="node">
<title>2</title>
<polygon fill="#0d0d73" stroke="#0d0d73" points="548.5,-420 460.5,-420 460.5,-368 548.5,-368 548.5,-420"/>
<text text-anchor="middle" x="504.5" y="-408" font-family="Arial" font-size="10.00" fill="#ffffff">Domain::Update</text>
<text text-anchor="middle" x="504.5" y="-397" font-family="Arial" font-size="10.00" fill="#ffffff">95.81%</text>
<text text-anchor="middle" x="504.5" y="-386" font-family="Arial" font-size="10.00" fill="#ffffff">(0.00%)</text>
<text text-anchor="middle" x="504.5" y="-375" font-family="Arial" font-size="10.00" fill="#ffffff">1×</text>
</g>
<!-- 1&#45;&gt;2 -->
<g id="edge1" class="edge">
<title>1&#45;&gt;2</title>
<path fill="none" stroke="#f92b01" stroke-width="3.83" d="M542.14,-459.9C536.79,-450.68 530.26,-439.42 524.15,-428.89"/>
<polygon fill="#f92b01" stroke="#f92b01" stroke-width="3.83" points="527.04,-427.02 519.15,-420.27 521.1,-430.47 527.04,-427.02"/>
<text text-anchor="middle" x="553.5" y="-443" font-family="Arial" font-size="10.00" fill="#f92b01">95.81%</text>
<text text-anchor="middle" x="553.5" y="-432" font-family="Arial" font-size="10.00" fill="#f92b01">1×</text>
</g>
<!-- 24 -->
<g id="node3" class="node">
<title>24</title>
<polygon fill="#0d0d73" stroke="#0d0d73" points="652.5,-420 562.5,-420 562.5,-368 652.5,-368 652.5,-420"/>
<text text-anchor="middle" x="607.5" y="-408" font-family="Arial" font-size="10.00" fill="#ffffff">Domain::Domain</text>
<text text-anchor="middle" x="607.5" y="-397" font-family="Arial" font-size="10.00" fill="#ffffff">0.88%</text>
<text text-anchor="middle" x="607.5" y="-386" font-family="Arial" font-size="10.00" fill="#ffffff">(0.00%)</text>
<text text-anchor="middle" x="607.5" y="-375" font-family="Arial" font-size="10.00" fill="#ffffff">1×</text>
</g>
<!-- 1&#45;&gt;24 -->
<g id="edge2" class="edge">
<title>1&#45;&gt;24</title>
<path fill="none" stroke="#0d1074" stroke-width="0.5" d="M566.66,-459.93C568.63,-456.95 570.63,-453.9 572.5,-451 578.26,-442.08 584.43,-432.28 589.97,-423.41"/>
<polygon fill="#0d1074" stroke="#0d1074" stroke-width="0.5" points="591.16,-423.81 591.98,-420.19 589.09,-422.51 591.16,-423.81"/>
<text text-anchor="middle" x="600.5" y="-443" font-family="Arial" font-size="10.00" fill="#0d1074">0.88%</text>
<text text-anchor="middle" x="600.5" y="-432" font-family="Arial" font-size="10.00" fill="#0d1074">1×</text>
</g>
<!-- 3 -->
<g id="node4" class="node">
<title>3</title>
<polygon fill="#0d0d73" stroke="#0d0d73" points="534,-328 409,-328 409,-276 534,-276 534,-328"/>
<text text-anchor="middle" x="471.5" y="-316" font-family="Arial" font-size="10.00" fill="#ffffff">SWE::computeFlowStep</text>
<text text-anchor="middle" x="471.5" y="-305" font-family="Arial" font-size="10.00" fill="#ffffff">95.37%</text>
<text text-anchor="middle" x="471.5" y="-294" font-family="Arial" font-size="10.00" fill="#ffffff">(0.00%)</text>
<text text-anchor="middle" x="471.5" y="-283" font-family="Arial" font-size="10.00" fill="#ffffff">5390×</text>
</g>
<!-- 2&#45;&gt;3 -->
<g id="edge3" class="edge">
<title>2&#45;&gt;3</title>
<path fill="none" stroke="#f82f01" stroke-width="3.81" d="M495.31,-367.93C491.87,-358.55 487.9,-347.72 484.2,-337.63"/>
<polygon fill="#f82f01" stroke="#f82f01" stroke-width="3.81" points="487.35,-336.27 480.76,-328.25 480.91,-338.63 487.35,-336.27"/>
<text text-anchor="middle" x="509.5" y="-351" font-family="Arial" font-size="10.00" fill="#f82f01">95.37%</text>
<text text-anchor="middle" x="509.5" y="-340" font-family="Arial" font-size="10.00" fill="#f82f01">5390×</text>
</g>
<!-- 28 -->
<g id="node15" class="node">
<title>28</title>
<polygon fill="#0d0d73" stroke="#0d0d73" points="744.5,-328 604.5,-328 604.5,-276 744.5,-276 744.5,-328"/>
<text text-anchor="middle" x="674.5" y="-316" font-family="Arial" font-size="10.00" fill="#ffffff">Domain::readCellsGeometry</text>
<text text-anchor="middle" x="674.5" y="-305" font-family="Arial" font-size="10.00" fill="#ffffff">0.52%</text>
<text text-anchor="middle" x="674.5" y="-294" font-family="Arial" font-size="10.00" fill="#ffffff">(0.00%)</text>
<text text-anchor="middle" x="674.5" y="-283" font-family="Arial" font-size="10.00" fill="#ffffff">1×</text>
</g>
<!-- 24&#45;&gt;28 -->
<g id="edge15" class="edge">
<title>24&#45;&gt;28</title>
<path fill="none" stroke="#0d0f73" stroke-width="0.5" d="M626.16,-367.93C634.66,-356.52 644.75,-342.96 653.51,-331.2"/>
<polygon fill="#0d0f73" stroke="#0d0f73" stroke-width="0.5" points="654.6,-331.79 655.7,-328.25 652.63,-330.32 654.6,-331.79"/>
<text text-anchor="middle" x="663.5" y="-351" font-family="Arial" font-size="10.00" fill="#0d0f73">0.52%</text>
<text text-anchor="middle" x="663.5" y="-340" font-family="Arial" font-size="10.00" fill="#0d0f73">1×</text>
</g>
<!-- 4 -->
<g id="node5" class="node">
<title>4</title>
<polygon fill="#0d267a" stroke="#0d267a" points="186,-236 33,-236 33,-184 186,-184 186,-236"/>
<text text-anchor="middle" x="109.5" y="-224" font-family="Arial" font-size="10.00" fill="#ffffff">PhysicalModel::computeFluxes</text>
<text text-anchor="middle" x="109.5" y="-213" font-family="Arial" font-size="10.00" fill="#ffffff">73.14%</text>
<text text-anchor="middle" x="109.5" y="-202" font-family="Arial" font-size="10.00" fill="#ffffff">(2.86%)</text>
<text text-anchor="middle" x="109.5" y="-191" font-family="Arial" font-size="10.00" fill="#ffffff">5390×</text>
</g>
<!-- 3&#45;&gt;4 -->
<g id="edge4" class="edge">
<title>3&#45;&gt;4</title>
<path fill="none" stroke="#c7d706" stroke-width="2.93" d="M408.92,-288.04C353.74,-276.26 271.05,-257.78 194.54,-237.08"/>
<polygon fill="#c7d706" stroke="#c7d706" stroke-width="2.93" points="195.3,-234.17 186.21,-234.81 193.71,-239.98 195.3,-234.17"/>
<text text-anchor="middle" x="330.5" y="-259" font-family="Arial" font-size="10.00" fill="#c7d706">73.14%</text>
<text text-anchor="middle" x="330.5" y="-248" font-family="Arial" font-size="10.00" fill="#c7d706">5390×</text>
</g>
<!-- 6 -->
<g id="node6" class="node">
<title>6</title>
<polygon fill="#0d1074" stroke="#0d1074" points="371.5,-236 195.5,-236 195.5,-184 371.5,-184 371.5,-236"/>
<text text-anchor="middle" x="283.5" y="-224" font-family="Arial" font-size="10.00" fill="#ffffff">SWE::computeFiniteVolumeBalance</text>
<text text-anchor="middle" x="283.5" y="-213" font-family="Arial" font-size="10.00" fill="#ffffff">12.52%</text>
<text text-anchor="middle" x="283.5" y="-202" font-family="Arial" font-size="10.00" fill="#ffffff">(0.33%)</text>
<text text-anchor="middle" x="283.5" y="-191" font-family="Arial" font-size="10.00" fill="#ffffff">5390×</text>
</g>
<!-- 3&#45;&gt;6 -->
<g id="edge5" class="edge">
<title>3&#45;&gt;6</title>
<path fill="none" stroke="#0d4883" stroke-width="0.5" d="M419.13,-275.93C394.28,-264.03 364.56,-249.81 339.29,-237.71"/>
<polygon fill="#0d4883" stroke="#0d4883" stroke-width="0.5" points="339.6,-236.5 335.91,-236.09 338.54,-238.71 339.6,-236.5"/>
<text text-anchor="middle" x="417.5" y="-259" font-family="Arial" font-size="10.00" fill="#0d4883">12.52%</text>
<text text-anchor="middle" x="417.5" y="-248" font-family="Arial" font-size="10.00" fill="#0d4883">5390×</text>
</g>
<!-- 8 -->
<g id="node7" class="node">
<title>8</title>
<polygon fill="#0d1074" stroke="#0d1074" points="562.5,-236 380.5,-236 380.5,-184 562.5,-184 562.5,-236"/>
<text text-anchor="middle" x="471.5" y="-224" font-family="Arial" font-size="10.00" fill="#ffffff">PhysicalModel::computeSourceTerms</text>
<text text-anchor="middle" x="471.5" y="-213" font-family="Arial" font-size="10.00" fill="#ffffff">6.27%</text>
<text text-anchor="middle" x="471.5" y="-202" font-family="Arial" font-size="10.00" fill="#ffffff">(0.44%)</text>
<text text-anchor="middle" x="471.5" y="-191" font-family="Arial" font-size="10.00" fill="#ffffff">5390×</text>
</g>
<!-- 3&#45;&gt;8 -->
<g id="edge6" class="edge">
<title>3&#45;&gt;8</title>
<path fill="none" stroke="#0d287b" stroke-width="0.5" d="M471.5,-275.93C471.5,-264.71 471.5,-251.42 471.5,-239.8"/>
<polygon fill="#0d287b" stroke="#0d287b" stroke-width="0.5" points="472.73,-239.75 471.5,-236.25 470.28,-239.75 472.73,-239.75"/>
<text text-anchor="middle" x="485.5" y="-259" font-family="Arial" font-size="10.00" fill="#0d287b">6.27%</text>
<text text-anchor="middle" x="485.5" y="-248" font-family="Arial" font-size="10.00" fill="#0d287b">5390×</text>
</g>
<!-- 13 -->
<g id="node8" class="node">
<title>13</title>
<polygon fill="#0d1976" stroke="#0d1976" points="681.5,-236 571.5,-236 571.5,-184 681.5,-184 681.5,-236"/>
<text text-anchor="middle" x="626.5" y="-224" font-family="Arial" font-size="10.00" fill="#ffffff">PhysicalModel::dtMin</text>
<text text-anchor="middle" x="626.5" y="-213" font-family="Arial" font-size="10.00" fill="#ffffff">3.44%</text>
<text text-anchor="middle" x="626.5" y="-202" font-family="Arial" font-size="10.00" fill="#ffffff">(1.43%)</text>
<text text-anchor="middle" x="626.5" y="-191" font-family="Arial" font-size="10.00" fill="#ffffff">5391×</text>
</g>
<!-- 3&#45;&gt;13 -->
<g id="edge7" class="edge">
<title>3&#45;&gt;13</title>
<path fill="none" stroke="#0d1b77" stroke-width="0.5" d="M514.68,-275.93C535.08,-264.08 559.46,-249.92 580.25,-237.86"/>
<polygon fill="#0d1b77" stroke="#0d1b77" stroke-width="0.5" points="580.88,-238.91 583.29,-236.09 579.64,-236.79 580.88,-238.91"/>
<text text-anchor="middle" x="581.5" y="-259" font-family="Arial" font-size="10.00" fill="#0d1b77">3.44%</text>
<text text-anchor="middle" x="581.5" y="-248" font-family="Arial" font-size="10.00" fill="#0d1b77">5390×</text>
</g>
<!-- 5 -->
<g id="node9" class="node">
<title>5</title>
<polygon fill="#ff0000" stroke="#ff0000" points="117,-144 0,-144 0,-92 117,-92 117,-144"/>
<text text-anchor="middle" x="58.5" y="-132" font-family="Arial" font-size="10.00" fill="#ffffff">HydroFluxLHLLC::Flux</text>
<text text-anchor="middle" x="58.5" y="-121" font-family="Arial" font-size="10.00" fill="#ffffff">69.17%</text>
<text text-anchor="middle" x="58.5" y="-110" font-family="Arial" font-size="10.00" fill="#ffffff">(49.23%)</text>
<text text-anchor="middle" x="58.5" y="-99" font-family="Arial" font-size="10.00" fill="#ffffff">103795230×</text>
</g>
<!-- 4&#45;&gt;5 -->
<g id="edge8" class="edge">
<title>4&#45;&gt;5</title>
<path fill="none" stroke="#a2d107" stroke-width="2.77" d="M95.29,-183.93C89.65,-173.97 83.08,-162.37 77.07,-151.76"/>
<polygon fill="#a2d107" stroke="#a2d107" stroke-width="2.77" points="79.43,-150.04 72.81,-144.25 74.37,-152.9 79.43,-150.04"/>
<text text-anchor="middle" x="117.5" y="-167" font-family="Arial" font-size="10.00" fill="#a2d107">69.17%</text>
<text text-anchor="middle" x="117.5" y="-156" font-family="Arial" font-size="10.00" fill="#a2d107">103795230×</text>
</g>
<!-- 26 -->
<g id="node10" class="node">
<title>26</title>
<polygon fill="#0d1074" stroke="#0d1074" points="227,-144 126,-144 126,-92 227,-92 227,-144"/>
<text text-anchor="middle" x="176.5" y="-132" font-family="Arial" font-size="10.00" fill="#ffffff">HydroBCWall::Flux</text>
<text text-anchor="middle" x="176.5" y="-121" font-family="Arial" font-size="10.00" fill="#ffffff">0.52%</text>
<text text-anchor="middle" x="176.5" y="-110" font-family="Arial" font-size="10.00" fill="#ffffff">(0.33%)</text>
<text text-anchor="middle" x="176.5" y="-99" font-family="Arial" font-size="10.00" fill="#ffffff">2112880×</text>
</g>
<!-- 4&#45;&gt;26 -->
<g id="edge9" class="edge">
<title>4&#45;&gt;26</title>
<path fill="none" stroke="#0d0f73" stroke-width="0.5" d="M138.76,-183.91C141.51,-181.03 144.15,-178.03 146.5,-175 153,-166.62 158.85,-156.63 163.62,-147.42"/>
<polygon fill="#0d0f73" stroke="#0d0f73" stroke-width="0.5" points="164.84,-147.75 165.33,-144.07 162.65,-146.63 164.84,-147.75"/>
<text text-anchor="middle" x="183" y="-167" font-family="Arial" font-size="10.00" fill="#0d0f73">0.52%</text>
<text text-anchor="middle" x="183" y="-156" font-family="Arial" font-size="10.00" fill="#0d0f73">2112880×</text>
</g>
<!-- 7 -->
<g id="node12" class="node">
<title>7</title>
<polygon fill="#0d4281" stroke="#0d4281" points="331,-144 236,-144 236,-92 331,-92 331,-144"/>
<text text-anchor="middle" x="283.5" y="-132" font-family="Arial" font-size="10.00" fill="#ffffff">CellSWE::Update</text>
<text text-anchor="middle" x="283.5" y="-121" font-family="Arial" font-size="10.00" fill="#ffffff">12.19%</text>
<text text-anchor="middle" x="283.5" y="-110" font-family="Arial" font-size="10.00" fill="#ffffff">(5.62%)</text>
<text text-anchor="middle" x="283.5" y="-99" font-family="Arial" font-size="10.00" fill="#ffffff">70048440×</text>
</g>
<!-- 6&#45;&gt;7 -->
<g id="edge11" class="edge">
<title>6&#45;&gt;7</title>
<path fill="none" stroke="#0d4682" stroke-width="0.5" d="M283.5,-183.93C283.5,-172.71 283.5,-159.42 283.5,-147.8"/>
<polygon fill="#0d4682" stroke="#0d4682" stroke-width="0.5" points="284.73,-147.75 283.5,-144.25 282.28,-147.75 284.73,-147.75"/>
<text text-anchor="middle" x="308" y="-167" font-family="Arial" font-size="10.00" fill="#0d4682">12.19%</text>
<text text-anchor="middle" x="308" y="-156" font-family="Arial" font-size="10.00" fill="#0d4682">70048440×</text>
</g>
<!-- 9 -->
<g id="node13" class="node">
<title>9</title>
<polygon fill="#0d3e81" stroke="#0d3e81" points="535,-144 362,-144 362,-92 535,-92 535,-144"/>
<text text-anchor="middle" x="448.5" y="-132" font-family="Arial" font-size="10.00" fill="#ffffff">ComputationalCell::computeFriction</text>
<text text-anchor="middle" x="448.5" y="-121" font-family="Arial" font-size="10.00" fill="#ffffff">5.83%</text>
<text text-anchor="middle" x="448.5" y="-110" font-family="Arial" font-size="10.00" fill="#ffffff">(5.29%)</text>
<text text-anchor="middle" x="448.5" y="-99" font-family="Arial" font-size="10.00" fill="#ffffff">70048440×</text>
</g>
<!-- 8&#45;&gt;9 -->
<g id="edge12" class="edge">
<title>8&#45;&gt;9</title>
<path fill="none" stroke="#0d267a" stroke-width="0.5" d="M465.09,-183.93C462.23,-172.71 458.83,-159.42 455.86,-147.8"/>
<polygon fill="#0d267a" stroke="#0d267a" stroke-width="0.5" points="457.01,-147.34 454.95,-144.25 454.63,-147.94 457.01,-147.34"/>
<text text-anchor="middle" x="488" y="-167" font-family="Arial" font-size="10.00" fill="#0d267a">5.83%</text>
<text text-anchor="middle" x="488" y="-156" font-family="Arial" font-size="10.00" fill="#0d267a">70048440×</text>
</g>
<!-- 18 -->
<g id="node11" class="node">
<title>18</title>
<polygon fill="#0d1d78" stroke="#0d1d78" points="368.5,-52 244.5,-52 244.5,0 368.5,0 368.5,-52"/>
<text text-anchor="middle" x="306.5" y="-40" font-family="Arial" font-size="10.00" fill="#ffffff">ComputationalCell::UVal</text>
<text text-anchor="middle" x="306.5" y="-29" font-family="Arial" font-size="10.00" fill="#ffffff">1.87%</text>
<text text-anchor="middle" x="306.5" y="-18" font-family="Arial" font-size="10.00" fill="#ffffff">(1.87%)</text>
<text text-anchor="middle" x="306.5" y="-7" font-family="Arial" font-size="10.00" fill="#ffffff">280913363×</text>
</g>
<!-- 13&#45;&gt;18 -->
<g id="edge13" class="edge">
<title>13&#45;&gt;18</title>
<path fill="none" stroke="#0d0f73" stroke-width="0.5" d="M594.28,-183.75C581.76,-172.64 568.15,-158.76 558.5,-144 545.03,-123.41 557.57,-108.7 539.5,-92 494.11,-50.03 423.87,-34.83 372.37,-29.5"/>
<polygon fill="#0d0f73" stroke="#0d0f73" stroke-width="0.5" points="372.3,-28.26 368.7,-29.13 372.06,-30.7 372.3,-28.26"/>
<text text-anchor="middle" x="583" y="-121" font-family="Arial" font-size="10.00" fill="#0d0f73">0.47%</text>
<text text-anchor="middle" x="583" y="-110" font-family="Arial" font-size="10.00" fill="#0d0f73">70061436×</text>
</g>
<!-- 22 -->
<g id="node14" class="node">
<title>22</title>
<polygon fill="#0d1a77" stroke="#0d1a77" points="739,-144 612,-144 612,-92 739,-92 739,-144"/>
<text text-anchor="middle" x="675.5" y="-132" font-family="Arial" font-size="10.00" fill="#ffffff">ComputationalCell::dtMin</text>
<text text-anchor="middle" x="675.5" y="-121" font-family="Arial" font-size="10.00" fill="#ffffff">1.54%</text>
<text text-anchor="middle" x="675.5" y="-110" font-family="Arial" font-size="10.00" fill="#ffffff">(1.54%)</text>
<text text-anchor="middle" x="675.5" y="-99" font-family="Arial" font-size="10.00" fill="#ffffff">63499180×</text>
</g>
<!-- 13&#45;&gt;22 -->
<g id="edge14" class="edge">
<title>13&#45;&gt;22</title>
<path fill="none" stroke="#0d1375" stroke-width="0.5" d="M640.15,-183.93C646.31,-172.61 653.62,-159.19 659.98,-147.5"/>
<polygon fill="#0d1375" stroke="#0d1375" stroke-width="0.5" points="661.16,-147.91 661.75,-144.25 659,-146.74 661.16,-147.91"/>
<text text-anchor="middle" x="682" y="-167" font-family="Arial" font-size="10.00" fill="#0d1375">1.54%</text>
<text text-anchor="middle" x="682" y="-156" font-family="Arial" font-size="10.00" fill="#0d1375">63499180×</text>
</g>
<!-- 5&#45;&gt;18 -->
<g id="edge10" class="edge">
<title>5&#45;&gt;18</title>
<path fill="none" stroke="#0d1275" stroke-width="0.5" d="M117.16,-93.64C118.62,-93.08 120.07,-92.54 121.5,-92 160.88,-77.27 205.33,-61.63 240.79,-49.37"/>
<polygon fill="#0d1275" stroke="#0d1275" stroke-width="0.5" points="241.28,-50.5 244.19,-48.2 240.48,-48.18 241.28,-50.5"/>
<text text-anchor="middle" x="234.5" y="-75" font-family="Arial" font-size="10.00" fill="#0d1275">1.38%</text>
<text text-anchor="middle" x="234.5" y="-64" font-family="Arial" font-size="10.00" fill="#0d1275">207590460×</text>
</g>
<!-- 27 -->
<g id="node16" class="node">
<title>27</title>
<polygon fill="#0d0d73" stroke="#0d0d73" points="780,-236 691,-236 691,-184 780,-184 780,-236"/>
<text text-anchor="middle" x="735.5" y="-224" font-family="Arial" font-size="10.00" fill="#ffffff">SWE::buildCells</text>
<text text-anchor="middle" x="735.5" y="-213" font-family="Arial" font-size="10.00" fill="#ffffff">0.52%</text>
<text text-anchor="middle" x="735.5" y="-202" font-family="Arial" font-size="10.00" fill="#ffffff">(0.00%)</text>
<text text-anchor="middle" x="735.5" y="-191" font-family="Arial" font-size="10.00" fill="#ffffff">1×</text>
</g>
<!-- 28&#45;&gt;27 -->
<g id="edge16" class="edge">
<title>28&#45;&gt;27</title>
<path fill="none" stroke="#0d0f73" stroke-width="0.5" d="M691.49,-275.93C699.23,-264.52 708.41,-250.96 716.39,-239.2"/>
<polygon fill="#0d0f73" stroke="#0d0f73" stroke-width="0.5" points="717.44,-239.83 718.39,-236.25 715.41,-238.46 717.44,-239.83"/>
<text text-anchor="middle" x="725.5" y="-259" font-family="Arial" font-size="10.00" fill="#0d0f73">0.52%</text>
<text text-anchor="middle" x="725.5" y="-248" font-family="Arial" font-size="10.00" fill="#0d0f73">1×</text>
</g>
</g>
</svg>
