<?xml version="1.0" encoding="utf-8" standalone="no"?>
<!DOCTYPE svg PUBLIC "-//W3C//DTD SVG 1.1//EN"
  "http://www.w3.org/Graphics/SVG/1.1/DTD/svg11.dtd">
<svg xmlns:xlink="http://www.w3.org/1999/xlink" width="288pt" height="288pt" viewBox="0 0 288 288" xmlns="http://www.w3.org/2000/svg" version="1.1">
 <metadata>
  <rdf:RDF xmlns:dc="http://purl.org/dc/elements/1.1/" xmlns:cc="http://creativecommons.org/ns#" xmlns:rdf="http://www.w3.org/1999/02/22-rdf-syntax-ns#">
   <cc:Work>
    <dc:type rdf:resource="http://purl.org/dc/dcmitype/StillImage"/>
    <dc:date>2025-04-06T17:46:52.770906</dc:date>
    <dc:format>image/svg+xml</dc:format>
    <dc:creator>
     <cc:Agent>
      <dc:title>Matplotlib v3.5.1, https://matplotlib.org/</dc:title>
     </cc:Agent>
    </dc:creator>
   </cc:Work>
  </rdf:RDF>
 </metadata>
 <defs>
  <style type="text/css">*{stroke-linejoin: round; stroke-linecap: butt}</style>
 </defs>
 <g id="figure_1">
  <g id="patch_1">
   <path d="M 0 288 
L 288 288 
L 288 0 
L 0 0 
z
" style="fill: #ffffff"/>
  </g>
  <g id="axes_1">
   <g id="line2d_1">
    <path d="M 98.884615 279.346154 
L 8.653846 279.346154 
M 189.115385 279.346154 
L 279.346154 279.346154 
M 189.115385 279.346154 
L 98.884615 279.346154 
M 279.346154 189.115385 
L 279.346154 279.346154 
M 279.346154 98.884615 
L 279.346154 8.653846 
M 279.346154 98.884615 
L 279.346154 189.115385 
M 189.115385 8.653846 
L 279.346154 8.653846 
M 98.884615 8.653846 
L 8.653846 8.653846 
M 98.884615 8.653846 
L 189.115385 8.653846 
M 8.653846 98.884615 
L 8.653846 8.653846 
M 8.653846 189.115385 
L 8.653846 279.346154 
M 8.653846 189.115385 
L 8.653846 98.884615 
M 201.204015 144 
L 279.346154 189.115385 
M 201.204015 144 
L 279.346154 98.884615 
M 86.795985 144 
L 8.653846 98.884615 
M 86.795985 144 
L 8.653846 189.115385 
M 86.795985 144 
L 201.204015 144 
M 144 75.633929 
L 189.115385 8.653846 
M 144 75.633929 
L 98.884615 8.653846 
M 144 75.633929 
L 201.204015 144 
M 144 75.633929 
L 86.795985 144 
M 144 212.366071 
L 98.884615 279.346154 
M 144 212.366071 
L 189.115385 279.346154 
M 144 212.366071 
L 201.204015 144 
M 144 212.366071 
L 86.795985 144 
M 74.24794 74.24794 
L 8.653846 8.653846 
M 74.24794 74.24794 
L 98.884615 8.653846 
M 74.24794 74.24794 
L 8.653846 98.884615 
M 74.24794 74.24794 
L 86.795985 144 
M 74.24794 74.24794 
L 144 75.633929 
M 213.75206 213.75206 
L 279.346154 279.346154 
M 213.75206 213.75206 
L 189.115385 279.346154 
M 213.75206 213.75206 
L 279.346154 189.115385 
M 213.75206 213.75206 
L 201.204015 144 
M 213.75206 213.75206 
L 144 212.366071 
M 74.24794 213.75206 
L 8.653846 279.346154 
M 74.24794 213.75206 
L 98.884615 279.346154 
M 74.24794 213.75206 
L 8.653846 189.115385 
M 74.24794 213.75206 
L 86.795985 144 
M 74.24794 213.75206 
L 144 212.366071 
M 213.75206 74.24794 
L 279.346154 8.653846 
M 213.75206 74.24794 
L 279.346154 98.884615 
M 213.75206 74.24794 
L 189.115385 8.653846 
M 213.75206 74.24794 
L 201.204015 144 
M 213.75206 74.24794 
L 144 75.633929 
L 144 75.633929 
" clip-path="url(#p60a37c01fb)" style="fill: none; stroke: #000000; stroke-width: 0.5; stroke-linecap: square"/>
   </g>
   <g id="line2d_2"/>
   <g id="text_1">
    <!-- $0$ -->
    <g style="fill: #4169e1" transform="translate(224.664799 33.25827)scale(0.11 -0.11)">
     <defs>
      <path id="CMR17-30" d="M 2688 2038 
C 2688 2430 2682 3099 2413 3613 
C 2176 4063 1798 4224 1466 4224 
C 1158 4224 768 4082 525 3620 
C 269 3137 243 2539 243 2038 
C 243 1671 250 1112 448 623 
C 723 -39 1216 -128 1466 -128 
C 1760 -128 2208 -7 2470 604 
C 2662 1048 2688 1568 2688 2038 
z
M 1466 -26 
C 1056 -26 813 328 723 816 
C 653 1196 653 1749 653 2109 
C 653 2604 653 3015 736 3407 
C 858 3954 1216 4121 1466 4121 
C 1728 4121 2067 3947 2189 3420 
C 2272 3054 2278 2623 2278 2109 
C 2278 1691 2278 1176 2202 797 
C 2067 96 1690 -26 1466 -26 
z
" transform="scale(0.015625)"/>
     </defs>
     <use xlink:href="#CMR17-30" transform="scale(0.996264)"/>
    </g>
   </g>
   <g id="text_2">
    <!-- $1$ -->
    <g style="fill: #4169e1" transform="translate(254.741722 63.335193)scale(0.11 -0.11)">
     <defs>
      <path id="CMR17-31" d="M 1702 4083 
C 1702 4217 1696 4224 1606 4224 
C 1357 3927 979 3833 621 3820 
C 602 3820 570 3820 563 3808 
C 557 3795 557 3782 557 3648 
C 755 3648 1088 3686 1344 3839 
L 1344 467 
C 1344 243 1331 166 781 166 
L 589 166 
L 589 0 
C 896 6 1216 12 1523 12 
C 1830 12 2150 6 2458 0 
L 2458 166 
L 2266 166 
C 1715 166 1702 236 1702 467 
L 1702 4083 
z
" transform="scale(0.015625)"/>
     </defs>
     <use xlink:href="#CMR17-31" transform="scale(0.996264)"/>
    </g>
   </g>
   <g id="text_3">
    <!-- $2$ -->
    <g style="fill: #4169e1" transform="translate(141.260266 33.720266)scale(0.11 -0.11)">
     <defs>
      <path id="CMR17-32" d="M 2669 990 
L 2554 990 
C 2490 537 2438 460 2413 422 
C 2381 371 1920 371 1830 371 
L 602 371 
C 832 620 1280 1073 1824 1596 
C 2214 1966 2669 2400 2669 3033 
C 2669 3788 2067 4224 1395 4224 
C 691 4224 262 3603 262 3027 
C 262 2777 448 2745 525 2745 
C 589 2745 781 2783 781 3007 
C 781 3206 614 3264 525 3264 
C 486 3264 448 3257 422 3244 
C 544 3788 915 4057 1306 4057 
C 1862 4057 2227 3616 2227 3033 
C 2227 2477 1901 1998 1536 1583 
L 262 147 
L 262 0 
L 2515 0 
L 2669 990 
z
" transform="scale(0.015625)"/>
     </defs>
     <use xlink:href="#CMR17-32" transform="scale(0.996264)"/>
    </g>
   </g>
   <g id="text_4">
    <!-- $3$ -->
    <g style="fill: #4169e1" transform="translate(179.549415 55.584964)scale(0.11 -0.11)">
     <defs>
      <path id="CMR17-33" d="M 1414 2176 
C 1984 2176 2234 1673 2234 1094 
C 2234 322 1824 25 1453 25 
C 1114 25 563 193 390 691 
C 422 678 454 678 486 678 
C 640 678 755 780 755 947 
C 755 1132 614 1216 486 1216 
C 378 1216 211 1164 211 927 
C 211 335 787 -128 1466 -128 
C 2176 -128 2720 432 2720 1087 
C 2720 1718 2208 2176 1600 2246 
C 2086 2347 2554 2776 2554 3353 
C 2554 3856 2048 4224 1472 4224 
C 890 4224 378 3862 378 3347 
C 378 3123 544 3084 627 3084 
C 762 3084 877 3167 877 3334 
C 877 3500 762 3584 627 3584 
C 602 3584 570 3584 544 3571 
C 730 3999 1235 4076 1459 4076 
C 1683 4076 2106 3966 2106 3347 
C 2106 3167 2080 2851 1862 2574 
C 1670 2329 1453 2316 1242 2297 
C 1210 2297 1062 2284 1037 2284 
C 992 2278 966 2272 966 2227 
C 966 2182 973 2176 1101 2176 
L 1414 2176 
z
" transform="scale(0.015625)"/>
     </defs>
     <use xlink:href="#CMR17-33" transform="scale(0.996264)"/>
    </g>
   </g>
   <g id="text_5">
    <!-- $4$ -->
    <g style="fill: #4169e1" transform="translate(228.694343 108.450578)scale(0.11 -0.11)">
     <defs>
      <path id="CMR17-34" d="M 2150 4147 
C 2150 4281 2144 4288 2029 4288 
L 128 1254 
L 128 1088 
L 1779 1088 
L 1779 460 
C 1779 230 1766 166 1318 166 
L 1197 166 
L 1197 0 
C 1402 12 1747 12 1965 12 
C 2182 12 2528 12 2733 0 
L 2733 166 
L 2611 166 
C 2163 166 2150 230 2150 460 
L 2150 1088 
L 2803 1088 
L 2803 1254 
L 2150 1254 
L 2150 4147 
z
M 1798 3723 
L 1798 1254 
L 256 1254 
L 1798 3723 
z
" transform="scale(0.015625)"/>
     </defs>
     <use xlink:href="#CMR17-34" transform="scale(0.996264)"/>
    </g>
   </g>
   <g id="text_6">
    <!-- $5$ -->
    <g style="fill: #4169e1" transform="translate(250.559041 146.739726)scale(0.11 -0.11)">
     <defs>
      <path id="CMR17-35" d="M 730 3750 
C 794 3724 1056 3641 1325 3641 
C 1920 3641 2246 3961 2432 4140 
C 2432 4191 2432 4224 2394 4224 
C 2387 4224 2374 4224 2323 4198 
C 2099 4102 1837 4032 1517 4032 
C 1325 4032 1037 4055 723 4191 
C 653 4224 640 4224 634 4224 
C 602 4224 595 4217 595 4090 
L 595 2231 
C 595 2113 595 2080 659 2080 
C 691 2080 704 2093 736 2139 
C 941 2435 1222 2560 1542 2560 
C 1766 2560 2246 2415 2246 1293 
C 2246 1087 2246 716 2054 422 
C 1894 159 1645 25 1370 25 
C 947 25 518 319 403 812 
C 429 806 480 793 506 793 
C 589 793 749 838 749 1036 
C 749 1209 627 1280 506 1280 
C 358 1280 262 1190 262 1011 
C 262 454 704 -128 1382 -128 
C 2042 -128 2669 441 2669 1267 
C 2669 2054 2170 2662 1549 2662 
C 1222 2662 947 2540 730 2304 
L 730 3750 
z
" transform="scale(0.015625)"/>
     </defs>
     <use xlink:href="#CMR17-35" transform="scale(0.996264)"/>
    </g>
   </g>
   <g id="text_7">
    <!-- $6$ -->
    <g style="fill: #4169e1" transform="translate(102.971118 55.584964)scale(0.11 -0.11)">
     <defs>
      <path id="CMR17-36" d="M 678 2198 
C 678 3712 1395 4076 1811 4076 
C 1946 4076 2272 4049 2400 3782 
C 2298 3782 2106 3782 2106 3558 
C 2106 3385 2246 3328 2336 3328 
C 2394 3328 2566 3353 2566 3571 
C 2566 3987 2246 4224 1805 4224 
C 1043 4224 243 3411 243 2011 
C 243 257 966 -128 1478 -128 
C 2099 -128 2688 431 2688 1295 
C 2688 2101 2170 2688 1517 2688 
C 1126 2688 838 2430 678 1979 
L 678 2198 
z
M 1478 25 
C 691 25 691 1212 691 1450 
C 691 1914 909 2585 1504 2585 
C 1613 2585 1926 2585 2138 2140 
C 2253 1889 2253 1624 2253 1302 
C 2253 954 2253 696 2118 438 
C 1978 173 1773 25 1478 25 
z
" transform="scale(0.015625)"/>
     </defs>
     <use xlink:href="#CMR17-36" transform="scale(0.996264)"/>
    </g>
   </g>
   <g id="text_8">
    <!-- $7$ -->
    <g style="fill: #4169e1" transform="translate(57.855733 33.25827)scale(0.11 -0.11)">
     <defs>
      <path id="CMR17-37" d="M 2886 3955 
L 2886 4096 
L 1382 4096 
C 634 4096 621 4166 595 4288 
L 480 4288 
L 294 3104 
L 410 3104 
C 429 3226 474 3552 550 3673 
C 589 3724 1062 3724 1171 3724 
L 2579 3724 
L 1869 2670 
C 1395 1961 1069 1003 1069 166 
C 1069 89 1069 -128 1299 -128 
C 1530 -128 1530 89 1530 172 
L 1530 466 
C 1530 1514 1709 2204 2003 2644 
L 2886 3955 
z
" transform="scale(0.015625)"/>
     </defs>
     <use xlink:href="#CMR17-37" transform="scale(0.996264)"/>
    </g>
   </g>
   <g id="text_9">
    <!-- $8$ -->
    <g style="fill: #4169e1" transform="translate(183.578958 100.700349)scale(0.11 -0.11)">
     <defs>
      <path id="CMR17-38" d="M 1741 2289 
C 2144 2494 2554 2803 2554 3298 
C 2554 3884 1990 4224 1472 4224 
C 890 4224 378 3800 378 3215 
C 378 3054 416 2777 666 2533 
C 730 2469 998 2276 1171 2154 
C 883 2006 211 1652 211 945 
C 211 282 838 -128 1459 -128 
C 2144 -128 2720 366 2720 1022 
C 2720 1607 2330 1877 2074 2051 
L 1741 2289 
z
M 902 2855 
C 851 2887 595 3086 595 3388 
C 595 3781 998 4076 1459 4076 
C 1965 4076 2336 3716 2336 3298 
C 2336 2700 1670 2359 1638 2359 
C 1632 2359 1626 2359 1574 2398 
L 902 2855 
z
M 2080 1536 
C 2176 1466 2483 1253 2483 861 
C 2483 385 2010 25 1472 25 
C 890 25 448 443 448 951 
C 448 1459 838 1884 1280 2083 
L 2080 1536 
z
" transform="scale(0.015625)"/>
     </defs>
     <use xlink:href="#CMR17-38" transform="scale(0.996264)"/>
    </g>
   </g>
   <g id="text_10">
    <!-- $9$ -->
    <g style="fill: #4169e1" transform="translate(228.694343 185.028874)scale(0.11 -0.11)">
     <defs>
      <path id="CMR17-39" d="M 2253 1871 
C 2253 448 1670 25 1190 25 
C 1043 25 685 43 538 281 
C 704 256 826 345 826 505 
C 826 678 685 736 595 736 
C 538 736 365 710 365 492 
C 365 68 742 -128 1203 -128 
C 1939 -128 2688 665 2688 2090 
C 2688 3857 1971 4224 1485 4224 
C 851 4224 243 3664 243 2800 
C 243 2000 762 1408 1414 1408 
C 1952 1408 2189 1910 2253 2122 
L 2253 1871 
z
M 1427 1510 
C 1254 1510 1011 1542 813 1929 
C 678 2181 678 2477 678 2793 
C 678 3174 678 3438 858 3722 
C 947 3857 1114 4076 1485 4076 
C 2240 4076 2240 2909 2240 2651 
C 2240 2193 2035 1510 1427 1510 
z
" transform="scale(0.015625)"/>
     </defs>
     <use xlink:href="#CMR17-39" transform="scale(0.996264)"/>
    </g>
   </g>
   <g id="text_11">
    <!-- $10$ -->
    <g style="fill: #4169e1" transform="translate(252.001989 230.144259)scale(0.11 -0.11)">
     <use xlink:href="#CMR17-31" transform="scale(0.996264)"/>
     <use xlink:href="#CMR17-30" transform="translate(45.690477 0)scale(0.996264)"/>
    </g>
   </g>
   <g id="text_12">
    <!-- $11$ -->
    <g style="fill: #4169e1" transform="translate(96.201841 100.700349)scale(0.11 -0.11)">
     <use xlink:href="#CMR17-31" transform="scale(0.996264)"/>
     <use xlink:href="#CMR17-31" transform="translate(45.690477 0)scale(0.996264)"/>
    </g>
   </g>
   <g id="text_13">
    <!-- $12$ -->
    <g style="fill: #4169e1" transform="translate(25.039077 63.335193)scale(0.11 -0.11)">
     <use xlink:href="#CMR17-31" transform="scale(0.996264)"/>
     <use xlink:href="#CMR17-32" transform="translate(45.690477 0)scale(0.996264)"/>
    </g>
   </g>
   <g id="text_14">
    <!-- $13$ -->
    <g style="fill: #4169e1" transform="translate(138.520533 123.951036)scale(0.11 -0.11)">
     <use xlink:href="#CMR17-31" transform="scale(0.996264)"/>
     <use xlink:href="#CMR17-33" transform="translate(45.690477 0)scale(0.996264)"/>
    </g>
   </g>
   <g id="text_15">
    <!-- $14$ -->
    <g style="fill: #4169e1" transform="translate(180.839225 192.779103)scale(0.11 -0.11)">
     <use xlink:href="#CMR17-31" transform="scale(0.996264)"/>
     <use xlink:href="#CMR17-34" transform="translate(45.690477 0)scale(0.996264)"/>
    </g>
   </g>
   <g id="text_16">
    <!-- $15$ -->
    <g style="fill: #4169e1" transform="translate(221.925066 260.221182)scale(0.11 -0.11)">
     <use xlink:href="#CMR17-31" transform="scale(0.996264)"/>
     <use xlink:href="#CMR17-35" transform="translate(45.690477 0)scale(0.996264)"/>
    </g>
   </g>
   <g id="text_17">
    <!-- $16$ -->
    <g style="fill: #4169e1" transform="translate(51.086456 108.450578)scale(0.11 -0.11)">
     <use xlink:href="#CMR17-31" transform="scale(0.996264)"/>
     <use xlink:href="#CMR17-36" transform="translate(45.690477 0)scale(0.996264)"/>
    </g>
   </g>
   <g id="text_18">
    <!-- $17$ -->
    <g style="fill: #4169e1" transform="translate(138.520533 169.528416)scale(0.11 -0.11)">
     <use xlink:href="#CMR17-31" transform="scale(0.996264)"/>
     <use xlink:href="#CMR17-37" transform="translate(45.690477 0)scale(0.996264)"/>
    </g>
   </g>
   <g id="text_19">
    <!-- $18$ -->
    <g style="fill: #4169e1" transform="translate(176.809681 237.894488)scale(0.11 -0.11)">
     <use xlink:href="#CMR17-31" transform="scale(0.996264)"/>
     <use xlink:href="#CMR17-38" transform="translate(45.690477 0)scale(0.996264)"/>
    </g>
   </g>
   <g id="text_20">
    <!-- $19$ -->
    <g style="fill: #4169e1" transform="translate(29.221758 146.739726)scale(0.11 -0.11)">
     <use xlink:href="#CMR17-31" transform="scale(0.996264)"/>
     <use xlink:href="#CMR17-39" transform="translate(45.690477 0)scale(0.996264)"/>
    </g>
   </g>
   <g id="text_21">
    <!-- $20$ -->
    <g style="fill: #4169e1" transform="translate(96.201841 192.779103)scale(0.11 -0.11)">
     <use xlink:href="#CMR17-32" transform="scale(0.996264)"/>
     <use xlink:href="#CMR17-30" transform="translate(45.690477 0)scale(0.996264)"/>
    </g>
   </g>
   <g id="text_22">
    <!-- $21$ -->
    <g style="fill: #4169e1" transform="translate(138.520533 259.759186)scale(0.11 -0.11)">
     <use xlink:href="#CMR17-32" transform="scale(0.996264)"/>
     <use xlink:href="#CMR17-31" transform="translate(45.690477 0)scale(0.996264)"/>
    </g>
   </g>
   <g id="text_23">
    <!-- $22$ -->
    <g style="fill: #4169e1" transform="translate(51.086456 185.028874)scale(0.11 -0.11)">
     <use xlink:href="#CMR17-32" transform="scale(0.996264)"/>
     <use xlink:href="#CMR17-32" transform="translate(45.690477 0)scale(0.996264)"/>
    </g>
   </g>
   <g id="text_24">
    <!-- $23$ -->
    <g style="fill: #4169e1" transform="translate(100.231384 237.894488)scale(0.11 -0.11)">
     <use xlink:href="#CMR17-32" transform="scale(0.996264)"/>
     <use xlink:href="#CMR17-33" transform="translate(45.690477 0)scale(0.996264)"/>
    </g>
   </g>
   <g id="text_25">
    <!-- $24$ -->
    <g style="fill: #4169e1" transform="translate(25.039077 230.144259)scale(0.11 -0.11)">
     <use xlink:href="#CMR17-32" transform="scale(0.996264)"/>
     <use xlink:href="#CMR17-34" transform="translate(45.690477 0)scale(0.996264)"/>
    </g>
   </g>
   <g id="text_26">
    <!-- $25$ -->
    <g style="fill: #4169e1" transform="translate(55.116 260.221182)scale(0.11 -0.11)">
     <use xlink:href="#CMR17-32" transform="scale(0.996264)"/>
     <use xlink:href="#CMR17-35" transform="translate(45.690477 0)scale(0.996264)"/>
    </g>
   </g>
   <g id="text_27">
    <g id="patch_2">
     <path d="M 231.491036 15.724467 
L 236.970503 15.724467 
Q 239.170503 15.724467 239.170503 13.524467 
L 239.170503 3.783225 
Q 239.170503 1.583225 236.970503 1.583225 
L 231.491036 1.583225 
Q 229.291036 1.583225 229.291036 3.783225 
L 229.291036 13.524467 
Q 229.291036 15.724467 231.491036 15.724467 
z
" style="fill: #ffffff"/>
    </g>
    <!-- $0$ -->
    <g style="fill: #dc143c" transform="translate(231.491036 11.393572)scale(0.11 -0.11)">
     <use xlink:href="#CMR17-30" transform="scale(0.996264)"/>
    </g>
   </g>
   <g id="text_28">
    <g id="patch_3">
     <path d="M 198.693989 48.521514 
L 204.173456 48.521514 
Q 206.373456 48.521514 206.373456 46.321514 
L 206.373456 36.580272 
Q 206.373456 34.380272 204.173456 34.380272 
L 198.693989 34.380272 
Q 196.493989 34.380272 196.493989 36.580272 
L 196.493989 46.321514 
Q 196.493989 48.521514 198.693989 48.521514 
z
" style="fill: #ffffff"/>
    </g>
    <!-- $1$ -->
    <g style="fill: #dc143c" transform="translate(198.693989 44.190619)scale(0.11 -0.11)">
     <use xlink:href="#CMR17-31" transform="scale(0.996264)"/>
    </g>
   </g>
   <g id="text_29">
    <g id="patch_4">
     <path d="M 276.60642 60.839851 
L 282.085887 60.839851 
Q 284.285887 60.839851 284.285887 58.639851 
L 284.285887 48.89861 
Q 284.285887 46.69861 282.085887 46.69861 
L 276.60642 46.69861 
Q 274.40642 46.69861 274.40642 48.89861 
L 274.40642 58.639851 
Q 274.40642 60.839851 276.60642 60.839851 
z
" style="fill: #ffffff"/>
    </g>
    <!-- $2$ -->
    <g style="fill: #dc143c" transform="translate(276.60642 56.508957)scale(0.11 -0.11)">
     <use xlink:href="#CMR17-32" transform="scale(0.996264)"/>
    </g>
   </g>
   <g id="text_30">
    <g id="patch_5">
     <path d="M 243.809373 48.521514 
L 249.288841 48.521514 
Q 251.488841 48.521514 251.488841 46.321514 
L 251.488841 36.580272 
Q 251.488841 34.380272 249.288841 34.380272 
L 243.809373 34.380272 
Q 241.609373 34.380272 241.609373 36.580272 
L 241.609373 46.321514 
Q 241.609373 48.521514 243.809373 48.521514 
z
" style="fill: #ffffff"/>
    </g>
    <!-- $3$ -->
    <g style="fill: #dc143c" transform="translate(243.809373 44.190619)scale(0.11 -0.11)">
     <use xlink:href="#CMR17-33" transform="scale(0.996264)"/>
    </g>
   </g>
   <g id="text_31">
    <g id="patch_6">
     <path d="M 141.260266 15.724467 
L 146.739734 15.724467 
Q 148.939734 15.724467 148.939734 13.524467 
L 148.939734 3.783225 
Q 148.939734 1.583225 146.739734 1.583225 
L 141.260266 1.583225 
Q 139.060266 1.583225 139.060266 3.783225 
L 139.060266 13.524467 
Q 139.060266 15.724467 141.260266 15.724467 
z
" style="fill: #ffffff"/>
    </g>
    <!-- $4$ -->
    <g style="fill: #dc143c" transform="translate(141.260266 11.393572)scale(0.11 -0.11)">
     <use xlink:href="#CMR17-34" transform="scale(0.996264)"/>
    </g>
   </g>
   <g id="text_32">
    <g id="patch_7">
     <path d="M 118.702574 49.214508 
L 124.182041 49.214508 
Q 126.382041 49.214508 126.382041 47.014508 
L 126.382041 37.273267 
Q 126.382041 35.073267 124.182041 35.073267 
L 118.702574 35.073267 
Q 116.502574 35.073267 116.502574 37.273267 
L 116.502574 47.014508 
Q 116.502574 49.214508 118.702574 49.214508 
z
" style="fill: #ffffff"/>
    </g>
    <!-- $5$ -->
    <g style="fill: #dc143c" transform="translate(118.702574 44.883613)scale(0.11 -0.11)">
     <use xlink:href="#CMR17-35" transform="scale(0.996264)"/>
    </g>
   </g>
   <g id="text_33">
    <g id="patch_8">
     <path d="M 163.817959 49.214508 
L 169.297426 49.214508 
Q 171.497426 49.214508 171.497426 47.014508 
L 171.497426 37.273267 
Q 171.497426 35.073267 169.297426 35.073267 
L 163.817959 35.073267 
Q 161.617959 35.073267 161.617959 37.273267 
L 161.617959 47.014508 
Q 161.617959 49.214508 163.817959 49.214508 
z
" style="fill: #ffffff"/>
    </g>
    <!-- $6$ -->
    <g style="fill: #dc143c" transform="translate(163.817959 44.883613)scale(0.11 -0.11)">
     <use xlink:href="#CMR17-36" transform="scale(0.996264)"/>
    </g>
   </g>
   <g id="text_34">
    <g id="patch_9">
     <path d="M 176.136296 82.011555 
L 181.615764 82.011555 
Q 183.815764 82.011555 183.815764 79.811555 
L 183.815764 70.070314 
Q 183.815764 67.870314 181.615764 67.870314 
L 176.136296 67.870314 
Q 173.936296 67.870314 173.936296 70.070314 
L 173.936296 79.811555 
Q 173.936296 82.011555 176.136296 82.011555 
z
" style="fill: #ffffff"/>
    </g>
    <!-- $7$ -->
    <g style="fill: #dc143c" transform="translate(176.136296 77.68066)scale(0.11 -0.11)">
     <use xlink:href="#CMR17-37" transform="scale(0.996264)"/>
    </g>
   </g>
   <g id="text_35">
    <g id="patch_10">
     <path d="M 243.809373 93.636898 
L 249.288841 93.636898 
Q 251.488841 93.636898 251.488841 91.436898 
L 251.488841 81.695657 
Q 251.488841 79.495657 249.288841 79.495657 
L 243.809373 79.495657 
Q 241.609373 79.495657 241.609373 81.695657 
L 241.609373 91.436898 
Q 241.609373 93.636898 243.809373 93.636898 
z
" style="fill: #ffffff"/>
    </g>
    <!-- $8$ -->
    <g style="fill: #dc143c" transform="translate(243.809373 89.306004)scale(0.11 -0.11)">
     <use xlink:href="#CMR17-38" transform="scale(0.996264)"/>
    </g>
   </g>
   <g id="text_36">
    <g id="patch_11">
     <path d="M 276.60642 151.070621 
L 282.085887 151.070621 
Q 284.285887 151.070621 284.285887 148.870621 
L 284.285887 139.129379 
Q 284.285887 136.929379 282.085887 136.929379 
L 276.60642 136.929379 
Q 274.40642 136.929379 274.40642 139.129379 
L 274.40642 148.870621 
Q 274.40642 151.070621 276.60642 151.070621 
z
" style="fill: #ffffff"/>
    </g>
    <!-- $9$ -->
    <g style="fill: #dc143c" transform="translate(276.60642 146.739726)scale(0.11 -0.11)">
     <use xlink:href="#CMR17-39" transform="scale(0.996264)"/>
    </g>
   </g>
   <g id="text_37">
    <g id="patch_12">
     <path d="M 234.795617 128.512928 
L 245.754552 128.512928 
Q 247.954552 128.512928 247.954552 126.312928 
L 247.954552 116.571687 
Q 247.954552 114.371687 245.754552 114.371687 
L 234.795617 114.371687 
Q 232.595617 114.371687 232.595617 116.571687 
L 232.595617 126.312928 
Q 232.595617 128.512928 234.795617 128.512928 
z
" style="fill: #ffffff"/>
    </g>
    <!-- $10$ -->
    <g style="fill: #dc143c" transform="translate(234.795617 124.182034)scale(0.11 -0.11)">
     <use xlink:href="#CMR17-31" transform="scale(0.996264)"/>
     <use xlink:href="#CMR17-30" transform="translate(45.690477 0)scale(0.996264)"/>
    </g>
   </g>
   <g id="text_38">
    <g id="patch_13">
     <path d="M 81.08681 48.521514 
L 92.045745 48.521514 
Q 94.245745 48.521514 94.245745 46.321514 
L 94.245745 36.580272 
Q 94.245745 34.380272 92.045745 34.380272 
L 81.08681 34.380272 
Q 78.88681 34.380272 78.88681 36.580272 
L 78.88681 46.321514 
Q 78.88681 48.521514 81.08681 48.521514 
z
" style="fill: #ffffff"/>
    </g>
    <!-- $11$ -->
    <g style="fill: #dc143c" transform="translate(81.08681 44.190619)scale(0.11 -0.11)">
     <use xlink:href="#CMR17-31" transform="scale(0.996264)"/>
     <use xlink:href="#CMR17-31" transform="translate(45.690477 0)scale(0.996264)"/>
    </g>
   </g>
   <g id="text_39">
    <g id="patch_14">
     <path d="M 48.289764 15.724467 
L 59.248698 15.724467 
Q 61.448698 15.724467 61.448698 13.524467 
L 61.448698 3.783225 
Q 61.448698 1.583225 59.248698 1.583225 
L 48.289764 1.583225 
Q 46.089764 1.583225 46.089764 3.783225 
L 46.089764 13.524467 
Q 46.089764 15.724467 48.289764 15.724467 
z
" style="fill: #ffffff"/>
    </g>
    <!-- $12$ -->
    <g style="fill: #dc143c" transform="translate(48.289764 11.393572)scale(0.11 -0.11)">
     <use xlink:href="#CMR17-31" transform="scale(0.996264)"/>
     <use xlink:href="#CMR17-32" transform="translate(45.690477 0)scale(0.996264)"/>
    </g>
   </g>
   <g id="text_40">
    <g id="patch_15">
     <path d="M 35.971426 48.521514 
L 46.93036 48.521514 
Q 49.13036 48.521514 49.13036 46.321514 
L 49.13036 36.580272 
Q 49.13036 34.380272 46.93036 34.380272 
L 35.971426 34.380272 
Q 33.771426 34.380272 33.771426 36.580272 
L 33.771426 46.321514 
Q 33.771426 48.521514 35.971426 48.521514 
z
" style="fill: #ffffff"/>
    </g>
    <!-- $13$ -->
    <g style="fill: #dc143c" transform="translate(35.971426 44.190619)scale(0.11 -0.11)">
     <use xlink:href="#CMR17-31" transform="scale(0.996264)"/>
     <use xlink:href="#CMR17-33" transform="translate(45.690477 0)scale(0.996264)"/>
    </g>
   </g>
   <g id="text_41">
    <g id="patch_16">
     <path d="M 201.998571 116.194591 
L 212.957505 116.194591 
Q 215.157505 116.194591 215.157505 113.994591 
L 215.157505 104.253349 
Q 215.157505 102.053349 212.957505 102.053349 
L 201.998571 102.053349 
Q 199.798571 102.053349 199.798571 104.253349 
L 199.798571 113.994591 
Q 199.798571 116.194591 201.998571 116.194591 
z
" style="fill: #ffffff"/>
    </g>
    <!-- $14$ -->
    <g style="fill: #dc143c" transform="translate(201.998571 111.863696)scale(0.11 -0.11)">
     <use xlink:href="#CMR17-31" transform="scale(0.996264)"/>
     <use xlink:href="#CMR17-34" transform="translate(45.690477 0)scale(0.996264)"/>
    </g>
   </g>
   <g id="text_42">
    <g id="patch_17">
     <path d="M 234.795617 173.628313 
L 245.754552 173.628313 
Q 247.954552 173.628313 247.954552 171.428313 
L 247.954552 161.687072 
Q 247.954552 159.487072 245.754552 159.487072 
L 234.795617 159.487072 
Q 232.595617 159.487072 232.595617 161.687072 
L 232.595617 171.428313 
Q 232.595617 173.628313 234.795617 173.628313 
z
" style="fill: #ffffff"/>
    </g>
    <!-- $15$ -->
    <g style="fill: #dc143c" transform="translate(234.795617 169.297418)scale(0.11 -0.11)">
     <use xlink:href="#CMR17-31" transform="scale(0.996264)"/>
     <use xlink:href="#CMR17-35" transform="translate(45.690477 0)scale(0.996264)"/>
    </g>
   </g>
   <g id="text_43">
    <g id="patch_18">
     <path d="M 201.998571 185.946651 
L 212.957505 185.946651 
Q 215.157505 185.946651 215.157505 183.746651 
L 215.157505 174.005409 
Q 215.157505 171.805409 212.957505 171.805409 
L 201.998571 171.805409 
Q 199.798571 171.805409 199.798571 174.005409 
L 199.798571 183.746651 
Q 199.798571 185.946651 201.998571 185.946651 
z
" style="fill: #ffffff"/>
    </g>
    <!-- $16$ -->
    <g style="fill: #dc143c" transform="translate(201.998571 181.615756)scale(0.11 -0.11)">
     <use xlink:href="#CMR17-31" transform="scale(0.996264)"/>
     <use xlink:href="#CMR17-36" transform="translate(45.690477 0)scale(0.996264)"/>
    </g>
   </g>
   <g id="text_44">
    <g id="patch_19">
     <path d="M 273.866687 241.30139 
L 284.825621 241.30139 
Q 287.025621 241.30139 287.025621 239.10139 
L 287.025621 229.360149 
Q 287.025621 227.160149 284.825621 227.160149 
L 273.866687 227.160149 
Q 271.666687 227.160149 271.666687 229.360149 
L 271.666687 239.10139 
Q 271.666687 241.30139 273.866687 241.30139 
z
" style="fill: #ffffff"/>
    </g>
    <!-- $17$ -->
    <g style="fill: #dc143c" transform="translate(273.866687 236.970495)scale(0.11 -0.11)">
     <use xlink:href="#CMR17-31" transform="scale(0.996264)"/>
     <use xlink:href="#CMR17-37" transform="translate(45.690477 0)scale(0.996264)"/>
    </g>
   </g>
   <g id="text_45">
    <g id="patch_20">
     <path d="M 241.06964 208.504343 
L 252.028574 208.504343 
Q 254.228574 208.504343 254.228574 206.304343 
L 254.228574 196.563102 
Q 254.228574 194.363102 252.028574 194.363102 
L 241.06964 194.363102 
Q 238.86964 194.363102 238.86964 196.563102 
L 238.86964 206.304343 
Q 238.86964 208.504343 241.06964 208.504343 
z
" style="fill: #ffffff"/>
    </g>
    <!-- $18$ -->
    <g style="fill: #dc143c" transform="translate(241.06964 204.173448)scale(0.11 -0.11)">
     <use xlink:href="#CMR17-31" transform="scale(0.996264)"/>
     <use xlink:href="#CMR17-38" transform="translate(45.690477 0)scale(0.996264)"/>
    </g>
   </g>
   <g id="text_46">
    <g id="patch_21">
     <path d="M 103.644503 82.011555 
L 114.603437 82.011555 
Q 116.803437 82.011555 116.803437 79.811555 
L 116.803437 70.070314 
Q 116.803437 67.870314 114.603437 67.870314 
L 103.644503 67.870314 
Q 101.444503 67.870314 101.444503 70.070314 
L 101.444503 79.811555 
Q 101.444503 82.011555 103.644503 82.011555 
z
" style="fill: #ffffff"/>
    </g>
    <!-- $19$ -->
    <g style="fill: #dc143c" transform="translate(103.644503 77.68066)scale(0.11 -0.11)">
     <use xlink:href="#CMR17-31" transform="scale(0.996264)"/>
     <use xlink:href="#CMR17-39" transform="translate(45.690477 0)scale(0.996264)"/>
    </g>
   </g>
   <g id="text_47">
    <g id="patch_22">
     <path d="M 109.918525 116.887585 
L 120.87746 116.887585 
Q 123.07746 116.887585 123.07746 114.687585 
L 123.07746 104.946344 
Q 123.07746 102.746344 120.87746 102.746344 
L 109.918525 102.746344 
Q 107.718525 102.746344 107.718525 104.946344 
L 107.718525 114.687585 
Q 107.718525 116.887585 109.918525 116.887585 
z
" style="fill: #ffffff"/>
    </g>
    <!-- $20$ -->
    <g style="fill: #dc143c" transform="translate(109.918525 112.55669)scale(0.11 -0.11)">
     <use xlink:href="#CMR17-32" transform="scale(0.996264)"/>
     <use xlink:href="#CMR17-30" transform="translate(45.690477 0)scale(0.996264)"/>
    </g>
   </g>
   <g id="text_48">
    <g id="patch_23">
     <path d="M 3.174379 60.839851 
L 14.133313 60.839851 
Q 16.333313 60.839851 16.333313 58.639851 
L 16.333313 48.89861 
Q 16.333313 46.69861 14.133313 46.69861 
L 3.174379 46.69861 
Q 0.974379 46.69861 0.974379 48.89861 
L 0.974379 58.639851 
Q 0.974379 60.839851 3.174379 60.839851 
z
" style="fill: #ffffff"/>
    </g>
    <!-- $21$ -->
    <g style="fill: #dc143c" transform="translate(3.174379 56.508957)scale(0.11 -0.11)">
     <use xlink:href="#CMR17-32" transform="scale(0.996264)"/>
     <use xlink:href="#CMR17-31" transform="translate(45.690477 0)scale(0.996264)"/>
    </g>
   </g>
   <g id="text_49">
    <g id="patch_24">
     <path d="M 35.971426 93.636898 
L 46.93036 93.636898 
Q 49.13036 93.636898 49.13036 91.436898 
L 49.13036 81.695657 
Q 49.13036 79.495657 46.93036 79.495657 
L 35.971426 79.495657 
Q 33.771426 79.495657 33.771426 81.695657 
L 33.771426 91.436898 
Q 33.771426 93.636898 35.971426 93.636898 
z
" style="fill: #ffffff"/>
    </g>
    <!-- $22$ -->
    <g style="fill: #dc143c" transform="translate(35.971426 89.306004)scale(0.11 -0.11)">
     <use xlink:href="#CMR17-32" transform="scale(0.996264)"/>
     <use xlink:href="#CMR17-32" transform="translate(45.690477 0)scale(0.996264)"/>
    </g>
   </g>
   <g id="text_50">
    <g id="patch_25">
     <path d="M 167.12254 116.887585 
L 178.081475 116.887585 
Q 180.281475 116.887585 180.281475 114.687585 
L 180.281475 104.946344 
Q 180.281475 102.746344 178.081475 102.746344 
L 167.12254 102.746344 
Q 164.92254 102.746344 164.92254 104.946344 
L 164.92254 114.687585 
Q 164.92254 116.887585 167.12254 116.887585 
z
" style="fill: #ffffff"/>
    </g>
    <!-- $23$ -->
    <g style="fill: #dc143c" transform="translate(167.12254 112.55669)scale(0.11 -0.11)">
     <use xlink:href="#CMR17-32" transform="scale(0.996264)"/>
     <use xlink:href="#CMR17-33" transform="translate(45.690477 0)scale(0.996264)"/>
    </g>
   </g>
   <g id="text_51">
    <g id="patch_26">
     <path d="M 167.12254 185.253656 
L 178.081475 185.253656 
Q 180.281475 185.253656 180.281475 183.053656 
L 180.281475 173.312415 
Q 180.281475 171.112415 178.081475 171.112415 
L 167.12254 171.112415 
Q 164.92254 171.112415 164.92254 173.312415 
L 164.92254 183.053656 
Q 164.92254 185.253656 167.12254 185.253656 
z
" style="fill: #ffffff"/>
    </g>
    <!-- $24$ -->
    <g style="fill: #dc143c" transform="translate(167.12254 180.922762)scale(0.11 -0.11)">
     <use xlink:href="#CMR17-32" transform="scale(0.996264)"/>
     <use xlink:href="#CMR17-34" transform="translate(45.690477 0)scale(0.996264)"/>
    </g>
   </g>
   <g id="text_52">
    <g id="patch_27">
     <path d="M 173.396563 220.129686 
L 184.355497 220.129686 
Q 186.555497 220.129686 186.555497 217.929686 
L 186.555497 208.188445 
Q 186.555497 205.988445 184.355497 205.988445 
L 173.396563 205.988445 
Q 171.196563 205.988445 171.196563 208.188445 
L 171.196563 217.929686 
Q 171.196563 220.129686 173.396563 220.129686 
z
" style="fill: #ffffff"/>
    </g>
    <!-- $25$ -->
    <g style="fill: #dc143c" transform="translate(173.396563 215.798792)scale(0.11 -0.11)">
     <use xlink:href="#CMR17-32" transform="scale(0.996264)"/>
     <use xlink:href="#CMR17-35" transform="translate(45.690477 0)scale(0.996264)"/>
    </g>
   </g>
   <g id="text_53">
    <g id="patch_28">
     <path d="M 228.751302 286.416775 
L 239.710236 286.416775 
Q 241.910236 286.416775 241.910236 284.216775 
L 241.910236 274.475533 
Q 241.910236 272.275533 239.710236 272.275533 
L 228.751302 272.275533 
Q 226.551302 272.275533 226.551302 274.475533 
L 226.551302 284.216775 
Q 226.551302 286.416775 228.751302 286.416775 
z
" style="fill: #ffffff"/>
    </g>
    <!-- $26$ -->
    <g style="fill: #dc143c" transform="translate(228.751302 282.08588)scale(0.11 -0.11)">
     <use xlink:href="#CMR17-32" transform="scale(0.996264)"/>
     <use xlink:href="#CMR17-36" transform="translate(45.690477 0)scale(0.996264)"/>
    </g>
   </g>
   <g id="text_54">
    <g id="patch_29">
     <path d="M 241.06964 253.619728 
L 252.028574 253.619728 
Q 254.228574 253.619728 254.228574 251.419728 
L 254.228574 241.678486 
Q 254.228574 239.478486 252.028574 239.478486 
L 241.06964 239.478486 
Q 238.86964 239.478486 238.86964 241.678486 
L 238.86964 251.419728 
Q 238.86964 253.619728 241.06964 253.619728 
z
" style="fill: #ffffff"/>
    </g>
    <!-- $27$ -->
    <g style="fill: #dc143c" transform="translate(241.06964 249.288833)scale(0.11 -0.11)">
     <use xlink:href="#CMR17-32" transform="scale(0.996264)"/>
     <use xlink:href="#CMR17-37" transform="translate(45.690477 0)scale(0.996264)"/>
    </g>
   </g>
   <g id="text_55">
    <g id="patch_30">
     <path d="M 75.042495 116.194591 
L 86.001429 116.194591 
Q 88.201429 116.194591 88.201429 113.994591 
L 88.201429 104.253349 
Q 88.201429 102.053349 86.001429 102.053349 
L 75.042495 102.053349 
Q 72.842495 102.053349 72.842495 104.253349 
L 72.842495 113.994591 
Q 72.842495 116.194591 75.042495 116.194591 
z
" style="fill: #ffffff"/>
    </g>
    <!-- $28$ -->
    <g style="fill: #dc143c" transform="translate(75.042495 111.863696)scale(0.11 -0.11)">
     <use xlink:href="#CMR17-32" transform="scale(0.996264)"/>
     <use xlink:href="#CMR17-38" transform="translate(45.690477 0)scale(0.996264)"/>
    </g>
   </g>
   <g id="text_56">
    <g id="patch_31">
     <path d="M 42.245448 128.512928 
L 53.204383 128.512928 
Q 55.404383 128.512928 55.404383 126.312928 
L 55.404383 116.571687 
Q 55.404383 114.371687 53.204383 114.371687 
L 42.245448 114.371687 
Q 40.045448 114.371687 40.045448 116.571687 
L 40.045448 126.312928 
Q 40.045448 128.512928 42.245448 128.512928 
z
" style="fill: #ffffff"/>
    </g>
    <!-- $29$ -->
    <g style="fill: #dc143c" transform="translate(42.245448 124.182034)scale(0.11 -0.11)">
     <use xlink:href="#CMR17-32" transform="scale(0.996264)"/>
     <use xlink:href="#CMR17-39" transform="translate(45.690477 0)scale(0.996264)"/>
    </g>
   </g>
   <g id="text_57">
    <g id="patch_32">
     <path d="M 138.520533 151.070621 
L 149.479467 151.070621 
Q 151.679467 151.070621 151.679467 148.870621 
L 151.679467 139.129379 
Q 151.679467 136.929379 149.479467 136.929379 
L 138.520533 136.929379 
Q 136.320533 136.929379 136.320533 139.129379 
L 136.320533 148.870621 
Q 136.320533 151.070621 138.520533 151.070621 
z
" style="fill: #ffffff"/>
    </g>
    <!-- $30$ -->
    <g style="fill: #dc143c" transform="translate(138.520533 146.739726)scale(0.11 -0.11)">
     <use xlink:href="#CMR17-33" transform="scale(0.996264)"/>
     <use xlink:href="#CMR17-30" transform="translate(45.690477 0)scale(0.996264)"/>
    </g>
   </g>
   <g id="text_58">
    <g id="patch_33">
     <path d="M 109.918525 185.253656 
L 120.87746 185.253656 
Q 123.07746 185.253656 123.07746 183.053656 
L 123.07746 173.312415 
Q 123.07746 171.112415 120.87746 171.112415 
L 109.918525 171.112415 
Q 107.718525 171.112415 107.718525 173.312415 
L 107.718525 183.053656 
Q 107.718525 185.253656 109.918525 185.253656 
z
" style="fill: #ffffff"/>
    </g>
    <!-- $31$ -->
    <g style="fill: #dc143c" transform="translate(109.918525 180.922762)scale(0.11 -0.11)">
     <use xlink:href="#CMR17-33" transform="scale(0.996264)"/>
     <use xlink:href="#CMR17-31" transform="translate(45.690477 0)scale(0.996264)"/>
    </g>
   </g>
   <g id="text_59">
    <g id="patch_34">
     <path d="M 195.954255 253.619728 
L 206.91319 253.619728 
Q 209.11319 253.619728 209.11319 251.419728 
L 209.11319 241.678486 
Q 209.11319 239.478486 206.91319 239.478486 
L 195.954255 239.478486 
Q 193.754255 239.478486 193.754255 241.678486 
L 193.754255 251.419728 
Q 193.754255 253.619728 195.954255 253.619728 
z
" style="fill: #ffffff"/>
    </g>
    <!-- $32$ -->
    <g style="fill: #dc143c" transform="translate(195.954255 249.288833)scale(0.11 -0.11)">
     <use xlink:href="#CMR17-33" transform="scale(0.996264)"/>
     <use xlink:href="#CMR17-32" transform="translate(45.690477 0)scale(0.996264)"/>
    </g>
   </g>
   <g id="text_60">
    <g id="patch_35">
     <path d="M 3.174379 151.070621 
L 14.133313 151.070621 
Q 16.333313 151.070621 16.333313 148.870621 
L 16.333313 139.129379 
Q 16.333313 136.929379 14.133313 136.929379 
L 3.174379 136.929379 
Q 0.974379 136.929379 0.974379 139.129379 
L 0.974379 148.870621 
Q 0.974379 151.070621 3.174379 151.070621 
z
" style="fill: #ffffff"/>
    </g>
    <!-- $33$ -->
    <g style="fill: #dc143c" transform="translate(3.174379 146.739726)scale(0.11 -0.11)">
     <use xlink:href="#CMR17-33" transform="scale(0.996264)"/>
     <use xlink:href="#CMR17-33" transform="translate(45.690477 0)scale(0.996264)"/>
    </g>
   </g>
   <g id="text_61">
    <g id="patch_36">
     <path d="M 42.245448 173.628313 
L 53.204383 173.628313 
Q 55.404383 173.628313 55.404383 171.428313 
L 55.404383 161.687072 
Q 55.404383 159.487072 53.204383 159.487072 
L 42.245448 159.487072 
Q 40.045448 159.487072 40.045448 161.687072 
L 40.045448 171.428313 
Q 40.045448 173.628313 42.245448 173.628313 
z
" style="fill: #ffffff"/>
    </g>
    <!-- $34$ -->
    <g style="fill: #dc143c" transform="translate(42.245448 169.297418)scale(0.11 -0.11)">
     <use xlink:href="#CMR17-33" transform="scale(0.996264)"/>
     <use xlink:href="#CMR17-34" transform="translate(45.690477 0)scale(0.996264)"/>
    </g>
   </g>
   <g id="text_62">
    <g id="patch_37">
     <path d="M 75.042495 185.946651 
L 86.001429 185.946651 
Q 88.201429 185.946651 88.201429 183.746651 
L 88.201429 174.005409 
Q 88.201429 171.805409 86.001429 171.805409 
L 75.042495 171.805409 
Q 72.842495 171.805409 72.842495 174.005409 
L 72.842495 183.746651 
Q 72.842495 185.946651 75.042495 185.946651 
z
" style="fill: #ffffff"/>
    </g>
    <!-- $35$ -->
    <g style="fill: #dc143c" transform="translate(75.042495 181.615756)scale(0.11 -0.11)">
     <use xlink:href="#CMR17-33" transform="scale(0.996264)"/>
     <use xlink:href="#CMR17-35" transform="translate(45.690477 0)scale(0.996264)"/>
    </g>
   </g>
   <g id="text_63">
    <g id="patch_38">
     <path d="M 138.520533 286.416775 
L 149.479467 286.416775 
Q 151.679467 286.416775 151.679467 284.216775 
L 151.679467 274.475533 
Q 151.679467 272.275533 149.479467 272.275533 
L 138.520533 272.275533 
Q 136.320533 272.275533 136.320533 274.475533 
L 136.320533 284.216775 
Q 136.320533 286.416775 138.520533 286.416775 
z
" style="fill: #ffffff"/>
    </g>
    <!-- $36$ -->
    <g style="fill: #dc143c" transform="translate(138.520533 282.08588)scale(0.11 -0.11)">
     <use xlink:href="#CMR17-33" transform="scale(0.996264)"/>
     <use xlink:href="#CMR17-36" transform="translate(45.690477 0)scale(0.996264)"/>
    </g>
   </g>
   <g id="text_64">
    <g id="patch_39">
     <path d="M 161.078225 252.926733 
L 172.03716 252.926733 
Q 174.23716 252.926733 174.23716 250.726733 
L 174.23716 240.985492 
Q 174.23716 238.785492 172.03716 238.785492 
L 161.078225 238.785492 
Q 158.878225 238.785492 158.878225 240.985492 
L 158.878225 250.726733 
Q 158.878225 252.926733 161.078225 252.926733 
z
" style="fill: #ffffff"/>
    </g>
    <!-- $37$ -->
    <g style="fill: #dc143c" transform="translate(161.078225 248.595839)scale(0.11 -0.11)">
     <use xlink:href="#CMR17-33" transform="scale(0.996264)"/>
     <use xlink:href="#CMR17-37" transform="translate(45.690477 0)scale(0.996264)"/>
    </g>
   </g>
   <g id="text_65">
    <g id="patch_40">
     <path d="M 35.971426 208.504343 
L 46.93036 208.504343 
Q 49.13036 208.504343 49.13036 206.304343 
L 49.13036 196.563102 
Q 49.13036 194.363102 46.93036 194.363102 
L 35.971426 194.363102 
Q 33.771426 194.363102 33.771426 196.563102 
L 33.771426 206.304343 
Q 33.771426 208.504343 35.971426 208.504343 
z
" style="fill: #ffffff"/>
    </g>
    <!-- $38$ -->
    <g style="fill: #dc143c" transform="translate(35.971426 204.173448)scale(0.11 -0.11)">
     <use xlink:href="#CMR17-33" transform="scale(0.996264)"/>
     <use xlink:href="#CMR17-38" transform="translate(45.690477 0)scale(0.996264)"/>
    </g>
   </g>
   <g id="text_66">
    <g id="patch_41">
     <path d="M 103.644503 220.129686 
L 114.603437 220.129686 
Q 116.803437 220.129686 116.803437 217.929686 
L 116.803437 208.188445 
Q 116.803437 205.988445 114.603437 205.988445 
L 103.644503 205.988445 
Q 101.444503 205.988445 101.444503 208.188445 
L 101.444503 217.929686 
Q 101.444503 220.129686 103.644503 220.129686 
z
" style="fill: #ffffff"/>
    </g>
    <!-- $39$ -->
    <g style="fill: #dc143c" transform="translate(103.644503 215.798792)scale(0.11 -0.11)">
     <use xlink:href="#CMR17-33" transform="scale(0.996264)"/>
     <use xlink:href="#CMR17-39" transform="translate(45.690477 0)scale(0.996264)"/>
    </g>
   </g>
   <g id="text_67">
    <g id="patch_42">
     <path d="M 115.96284 252.926733 
L 126.921775 252.926733 
Q 129.121775 252.926733 129.121775 250.726733 
L 129.121775 240.985492 
Q 129.121775 238.785492 126.921775 238.785492 
L 115.96284 238.785492 
Q 113.76284 238.785492 113.76284 240.985492 
L 113.76284 250.726733 
Q 113.76284 252.926733 115.96284 252.926733 
z
" style="fill: #ffffff"/>
    </g>
    <!-- $40$ -->
    <g style="fill: #dc143c" transform="translate(115.96284 248.595839)scale(0.11 -0.11)">
     <use xlink:href="#CMR17-34" transform="scale(0.996264)"/>
     <use xlink:href="#CMR17-30" transform="translate(45.690477 0)scale(0.996264)"/>
    </g>
   </g>
   <g id="text_68">
    <g id="patch_43">
     <path d="M 3.174379 241.30139 
L 14.133313 241.30139 
Q 16.333313 241.30139 16.333313 239.10139 
L 16.333313 229.360149 
Q 16.333313 227.160149 14.133313 227.160149 
L 3.174379 227.160149 
Q 0.974379 227.160149 0.974379 229.360149 
L 0.974379 239.10139 
Q 0.974379 241.30139 3.174379 241.30139 
z
" style="fill: #ffffff"/>
    </g>
    <!-- $41$ -->
    <g style="fill: #dc143c" transform="translate(3.174379 236.970495)scale(0.11 -0.11)">
     <use xlink:href="#CMR17-34" transform="scale(0.996264)"/>
     <use xlink:href="#CMR17-31" transform="translate(45.690477 0)scale(0.996264)"/>
    </g>
   </g>
   <g id="text_69">
    <g id="patch_44">
     <path d="M 35.971426 253.619728 
L 46.93036 253.619728 
Q 49.13036 253.619728 49.13036 251.419728 
L 49.13036 241.678486 
Q 49.13036 239.478486 46.93036 239.478486 
L 35.971426 239.478486 
Q 33.771426 239.478486 33.771426 241.678486 
L 33.771426 251.419728 
Q 33.771426 253.619728 35.971426 253.619728 
z
" style="fill: #ffffff"/>
    </g>
    <!-- $42$ -->
    <g style="fill: #dc143c" transform="translate(35.971426 249.288833)scale(0.11 -0.11)">
     <use xlink:href="#CMR17-34" transform="scale(0.996264)"/>
     <use xlink:href="#CMR17-32" transform="translate(45.690477 0)scale(0.996264)"/>
    </g>
   </g>
   <g id="text_70">
    <g id="patch_45">
     <path d="M 48.289764 286.416775 
L 59.248698 286.416775 
Q 61.448698 286.416775 61.448698 284.216775 
L 61.448698 274.475533 
Q 61.448698 272.275533 59.248698 272.275533 
L 48.289764 272.275533 
Q 46.089764 272.275533 46.089764 274.475533 
L 46.089764 284.216775 
Q 46.089764 286.416775 48.289764 286.416775 
z
" style="fill: #ffffff"/>
    </g>
    <!-- $43$ -->
    <g style="fill: #dc143c" transform="translate(48.289764 282.08588)scale(0.11 -0.11)">
     <use xlink:href="#CMR17-34" transform="scale(0.996264)"/>
     <use xlink:href="#CMR17-33" transform="translate(45.690477 0)scale(0.996264)"/>
    </g>
   </g>
   <g id="text_71">
    <g id="patch_46">
     <path d="M 81.08681 253.619728 
L 92.045745 253.619728 
Q 94.245745 253.619728 94.245745 251.419728 
L 94.245745 241.678486 
Q 94.245745 239.478486 92.045745 239.478486 
L 81.08681 239.478486 
Q 78.88681 239.478486 78.88681 241.678486 
L 78.88681 251.419728 
Q 78.88681 253.619728 81.08681 253.619728 
z
" style="fill: #ffffff"/>
    </g>
    <!-- $44$ -->
    <g style="fill: #dc143c" transform="translate(81.08681 249.288833)scale(0.11 -0.11)">
     <use xlink:href="#CMR17-34" transform="scale(0.996264)"/>
     <use xlink:href="#CMR17-34" transform="translate(45.690477 0)scale(0.996264)"/>
    </g>
   </g>
  </g>
 </g>
 <defs>
  <clipPath id="p60a37c01fb">
   <rect x="3.24" y="3.24" width="281.52" height="281.52"/>
  </clipPath>
 </defs>
</svg>
